<svg width="149" height="93" viewBox="0 0 149 93" fill="none" xmlns="http://www.w3.org/2000/svg">
<path d="M82.9481 2.44958C82.9481 2.44958 67.5239 31.3547 62.9482 65.0076L85.0637 63.4824C85.0637 63.4824 85.6295 25.4261 99.381 6.0166L82.9481 2.44958Z" fill="url(#paint0_linear)"/>
<path d="M45.0639 2.84335C45.0639 2.84335 29.1476 31.9207 29 58.8824L44.1045 64.0976C44.1045 64.0976 49.7625 25.2294 67.4746 1.12134L45.0639 2.84335Z" fill="#61E7BE"/>
<path d="M118.913 54.5034C118.913 54.5034 99.3809 29.0915 99.3809 6.0166L82.948 2.44958C82.948 2.44958 83.7106 38.2673 100.365 60.309L118.913 54.5034Z" fill="url(#paint1_linear)"/>
<path d="M67.4744 1.12118C67.4744 1.12118 67.3022 38.1689 85.0635 63.4824C85.0635 63.4824 71.681 66.5083 62.5544 65.106C62.5544 65.106 46.7365 42.7446 45.0637 2.84319C45.0637 2.84319 53.8952 0.210977 67.4744 1.12118Z" fill="url(#paint2_linear)"/>
<path d="M0 77.5593H3.33647L8.00054 88.4596L12.6646 77.5593H15.9836V92.2328H13.0489V82.6776L9.11852 92.2153H6.90003L2.93469 82.6776V92.2153H0V77.5593Z" fill="white"/>
<path d="M23.9841 92.4077C20.5952 92.4077 18.1497 90.0494 18.1497 86.3985C18.1497 82.7127 20.5428 80.3894 23.9841 80.3894C27.338 80.3894 29.7138 82.6778 29.7138 86.154C29.7138 86.5383 29.6963 86.9051 29.6264 87.2894H21.1193C21.259 89.0188 22.4469 89.9796 23.9142 89.9796C25.172 89.9796 25.8707 89.3507 26.255 88.5646H29.4343C28.7879 90.7132 26.8489 92.4077 23.9841 92.4077ZM21.1368 85.298H26.6568C26.6218 83.7608 25.3991 82.8 23.8793 82.8C22.4818 82.8 21.3638 83.7084 21.1368 85.298Z" fill="white"/>
<path d="M34.7975 92.2154H31.8628V80.5814H34.7975V82.3807C35.5312 81.1753 36.754 80.4067 38.3785 80.4067V83.4986H37.5924C35.8456 83.4986 34.7975 84.1624 34.7975 86.4159V92.2154Z" fill="white"/>
<path d="M45.3483 80.3894C48.2481 80.3894 50.2045 81.9092 50.8334 84.512H47.6541C47.3222 83.5163 46.5362 82.8874 45.3134 82.8874C43.6713 82.8874 42.5883 84.1276 42.5883 86.3985C42.5883 88.6694 43.6888 89.8922 45.3134 89.8922C46.5362 89.8922 47.2873 89.3507 47.6541 88.3026H50.8334C50.2045 90.7831 48.2481 92.4251 45.3483 92.4251C41.9944 92.4251 39.5837 90.0669 39.5837 86.416C39.5837 82.7651 41.9944 80.3894 45.3483 80.3894Z" fill="white"/>
<path d="M57.5586 80.3894C59.4277 80.3894 60.7029 81.2803 61.4016 82.2411V80.5816H64.3713V92.2155H61.4016V90.5211C60.7029 91.5343 59.3928 92.4077 57.5411 92.4077C54.6064 92.4077 52.2482 89.997 52.2482 86.3636C52.2482 82.7127 54.5889 80.3894 57.5586 80.3894ZM58.3097 82.9747C56.7376 82.9747 55.2353 84.1451 55.2353 86.3636C55.2353 88.5646 56.7201 89.8224 58.3097 89.8224C59.9343 89.8224 61.4016 88.5996 61.4016 86.3985C61.4016 84.1975 59.9343 82.9747 58.3097 82.9747Z" fill="white"/>
<path d="M71.8303 80.3894C73.3675 80.3894 74.8349 81.1056 75.6384 82.1886V76.6686H78.608V92.2155H75.6384V90.4861C74.9397 91.5517 73.647 92.3902 71.8128 92.3902C68.8432 92.3902 66.5024 89.9795 66.5024 86.3461C66.4849 82.7127 68.8432 80.3894 71.8303 80.3894ZM72.564 82.9747C70.9918 82.9747 69.4895 84.1451 69.4895 86.3636C69.4895 88.5646 70.9743 89.8223 72.564 89.8223C74.1885 89.8223 75.6559 88.5995 75.6559 86.3985C75.6559 84.1975 74.1885 82.9747 72.564 82.9747Z" fill="white"/>
<path d="M86.6609 92.4077C83.307 92.4077 80.7566 90.0494 80.7566 86.3985C80.7566 82.7127 83.3769 80.3894 86.7483 80.3894C90.1197 80.3894 92.7399 82.7302 92.7399 86.3985C92.7399 90.0494 90.0498 92.4077 86.6609 92.4077ZM86.6609 89.8398C88.2156 89.8398 89.7004 88.7044 89.7004 86.3985C89.7004 84.0578 88.2505 82.9573 86.6959 82.9573C85.1412 82.9573 83.7262 84.0752 83.7262 86.3985C83.7437 88.7044 85.0888 89.8398 86.6609 89.8398Z" fill="white"/>
<path d="M101.631 77.3674C104.88 77.3674 107.536 79.1143 108.531 82.1188H105.143C104.444 80.7039 103.186 80.0226 101.614 80.0226C99.046 80.0226 97.2293 81.8918 97.2293 84.8789C97.2293 87.8485 99.0635 89.7351 101.614 89.7351C103.186 89.7351 104.444 89.0363 105.143 87.6039H108.531C107.536 90.626 104.898 92.3553 101.631 92.3553C97.404 92.3553 94.1898 89.2634 94.1898 84.8789C94.1898 80.4768 97.404 77.3674 101.631 77.3674Z" fill="white"/>
<path d="M115.606 80.3894C117.475 80.3894 118.751 81.2803 119.449 82.2411V80.5816H122.419V92.2155H119.449V90.5211C118.751 91.5343 117.44 92.4077 115.589 92.4077C112.654 92.4077 110.296 89.997 110.296 86.3636C110.278 82.7127 112.637 80.3894 115.606 80.3894ZM116.357 82.9747C114.785 82.9747 113.283 84.1451 113.283 86.3636C113.283 88.5646 114.768 89.8224 116.357 89.8224C117.982 89.8224 119.449 88.5996 119.449 86.3985C119.449 84.1975 117.982 82.9747 116.357 82.9747Z" fill="white"/>
<path d="M129.738 92.4078C126.821 92.4078 124.777 90.7134 124.655 88.5473H127.624C127.729 89.4382 128.55 90.102 129.72 90.102C130.873 90.102 131.502 89.5779 131.502 88.8967C131.502 86.8179 124.917 88.1455 124.917 83.8658C124.917 81.9268 126.646 80.3721 129.511 80.3721C132.323 80.3721 134.035 81.9093 134.192 84.2151H131.38C131.293 83.3068 130.576 82.6954 129.423 82.6954C128.323 82.6954 127.764 83.1321 127.764 83.8133C127.764 85.9445 134.21 84.6169 134.297 88.8792C134.332 90.8881 132.585 92.4078 129.738 92.4078Z" fill="white"/>
<path d="M141.302 80.3894C143.171 80.3894 144.446 81.2803 145.145 82.2411V80.5816H148.115V92.2155H145.145V90.5211C144.446 91.5343 143.136 92.4077 141.285 92.4077C138.35 92.4077 135.992 89.997 135.992 86.3636C135.992 82.7127 138.332 80.3894 141.302 80.3894ZM142.053 82.9747C140.481 82.9747 138.979 84.1451 138.979 86.3636C138.979 88.5646 140.464 89.8224 142.053 89.8224C143.678 89.8224 145.145 88.5996 145.145 86.3985C145.145 84.1975 143.678 82.9747 142.053 82.9747Z" fill="white"/>
<defs>
<linearGradient id="paint0_linear" x1="66.4189" y1="39.359" x2="101.383" y2="28.0617" gradientUnits="userSpaceOnUse">
<stop stop-color="#008297"/>
<stop offset="0.0594552" stop-color="#179AA0"/>
<stop offset="0.1576" stop-color="#37BBAD"/>
<stop offset="0.2513" stop-color="#4ED3B6"/>
<stop offset="0.3378" stop-color="#5CE2BC"/>
<stop offset="0.4103" stop-color="#61E7BE"/>
<stop offset="0.4795" stop-color="#61E7BE"/>
<stop offset="0.559" stop-color="#61E7BE"/>
</linearGradient>
<linearGradient id="paint1_linear" x1="121.867" y1="55.1613" x2="84.6949" y2="17.989" gradientUnits="userSpaceOnUse">
<stop stop-color="#61E7BE"/>
<stop offset="0.236" stop-color="#54E0BD"/>
<stop offset="0.6683" stop-color="#33CEBC"/>
<stop offset="1" stop-color="#15BEBB"/>
</linearGradient>
<linearGradient id="paint2_linear" x1="101.881" y1="69.9816" x2="43.8934" y2="18.5038" gradientUnits="userSpaceOnUse">
<stop stop-color="#61E7BE"/>
<stop offset="0.236" stop-color="#54E0BD"/>
<stop offset="0.6683" stop-color="#33CEBC"/>
<stop offset="1" stop-color="#15BEBB"/>
</linearGradient>
</defs>
</svg>
