<svg width="58" height="42" viewBox="0 0 58 42" fill="none" xmlns="http://www.w3.org/2000/svg">
<path d="M34.5 0.971901C34.5 0.971901 24.6361 19.4569 21.71 40.9781L35.8529 40.0027C35.8529 40.0027 36.2148 15.6655 45.0089 3.25302L34.5 0.971901Z" fill="url(#paint0_linear)"/>
<path d="M10.2729 1.22362C10.2729 1.22362 0.0943913 19.8187 0 37.0608L9.65937 40.396C9.65937 40.396 13.2777 15.5396 24.6047 0.122387L10.2729 1.22362Z" fill="#61E7BE"/>
<path d="M57.5 34.2606C57.5 34.2606 45.0089 18.0095 45.0089 3.25302L34.5 0.971901C34.5 0.971901 34.9877 23.8775 45.6382 37.9733L57.5 34.2606Z" fill="url(#paint1_linear)"/>
<path d="M24.6047 0.122383C24.6047 0.122383 24.4946 23.8146 35.853 40.0027C35.853 40.0027 27.2948 41.9377 21.4583 41.041C21.4583 41.041 11.3427 26.7407 10.2729 1.22361C10.2729 1.22361 15.9207 -0.459697 24.6047 0.122383Z" fill="url(#paint2_linear)"/>
<defs>
<linearGradient id="paint0_linear" x1="23.9295" y1="24.5756" x2="46.2891" y2="17.351" gradientUnits="userSpaceOnUse">
<stop stop-color="#008297"/>
<stop offset="0.0594552" stop-color="#179AA0"/>
<stop offset="0.1576" stop-color="#37BBAD"/>
<stop offset="0.2513" stop-color="#4ED3B6"/>
<stop offset="0.3378" stop-color="#5CE2BC"/>
<stop offset="0.4103" stop-color="#61E7BE"/>
<stop offset="0.4795" stop-color="#61E7BE"/>
<stop offset="0.559" stop-color="#61E7BE"/>
</linearGradient>
<linearGradient id="paint1_linear" x1="59.389" y1="34.6813" x2="35.6171" y2="10.9094" gradientUnits="userSpaceOnUse">
<stop stop-color="#61E7BE"/>
<stop offset="0.236" stop-color="#54E0BD"/>
<stop offset="0.6683" stop-color="#33CEBC"/>
<stop offset="1" stop-color="#15BEBB"/>
</linearGradient>
<linearGradient id="paint2_linear" x1="46.6077" y1="44.1589" x2="9.52454" y2="11.2387" gradientUnits="userSpaceOnUse">
<stop stop-color="#61E7BE"/>
<stop offset="0.236" stop-color="#54E0BD"/>
<stop offset="0.6683" stop-color="#33CEBC"/>
<stop offset="1" stop-color="#15BEBB"/>
</linearGradient>
</defs>
</svg>
