<svg width="30" height="30" viewBox="0 0 30 30" fill="none" xmlns="http://www.w3.org/2000/svg">
<path fill-rule="evenodd" clip-rule="evenodd" d="M14.8 0C6.59063 0 0 6.59063 0 14.8C0 23.0094 6.59063 29.6 14.8 29.6C23.0094 29.6 29.6 23.0094 29.6 14.8C29.6 6.59063 23.0094 0 14.8 0ZM14.8 27.75C7.63125 27.75 1.85 21.9688 1.85 14.8C1.85 7.63125 7.63125 1.85 14.8 1.85C21.9688 1.85 27.75 7.63125 27.75 14.8C27.75 21.9688 21.9688 27.75 14.8 27.75ZM20.35 13.875H15.725V9.25C15.725 8.7875 15.2625 8.325 14.8 8.325C14.3375 8.325 13.875 8.7875 13.875 9.25V13.875H9.25C8.7875 13.875 8.325 14.3375 8.325 14.8C8.325 15.2625 8.7875 15.725 9.25 15.725H13.875V20.35C13.875 20.8125 14.3375 21.275 14.8 21.275C15.2625 21.275 15.725 20.8125 15.725 20.35V15.725H20.35C20.8125 15.725 21.275 15.2625 21.275 14.8C21.275 14.3375 20.8125 13.875 20.35 13.875Z" fill="white"/>
</svg>
