<svg width="37" height="26" viewBox="0 0 37 26" fill="none" xmlns="http://www.w3.org/2000/svg">
<path d="M34.4423 1.69369H28.8284V0.78994C28.8284 0.354804 28.4526 0 27.983 0C27.5134 0 27.1304 0.354804 27.1304 0.78994V1.70038H22.5063V0.78994C22.5063 0.354804 22.1234 0 21.6538 0C21.1914 0 20.8084 0.354804 20.8084 0.78994V1.70038H16.1843V0.78994C16.1843 0.354804 15.8014 0 15.3318 0C14.8621 0 14.4792 0.354804 14.4792 0.78994V1.70038H9.85511V0.78994C9.85511 0.354804 9.47217 0 9.00254 0C8.54013 0 8.16442 0.354804 8.16442 0.78994V1.70038H2.55048C1.14157 1.69369 0 2.7581 0 4.05681V23.3769C0 24.6756 1.14157 25.74 2.55048 25.74H34.4495C35.8512 25.74 37 24.6823 37 23.3769V4.05681C36.9928 2.7581 35.8512 1.69369 34.4423 1.69369ZM35.2949 23.3769C35.2949 23.812 34.9119 24.1668 34.4423 24.1668H2.55048C2.08084 24.1668 1.69791 23.812 1.69791 23.3769V4.05681C1.69791 3.62167 2.08084 3.26687 2.55048 3.26687H8.16442V4.17731C8.16442 4.61245 8.54735 4.96725 9.01699 4.96725C9.48662 4.96725 9.86956 4.61245 9.86956 4.17731V3.26687H14.4937V4.17731C14.4937 4.61245 14.8766 4.96725 15.3462 4.96725C15.8159 4.96725 16.1843 4.61245 16.1843 4.17731V3.26687H20.8084V4.17731C20.8084 4.61245 21.1914 4.96725 21.661 4.96725C22.1306 4.96725 22.5136 4.61245 22.5136 4.17731V3.26687H27.1377V4.17731C27.1377 4.61245 27.5206 4.96725 27.9902 4.96725C28.4599 4.96725 28.8428 4.61245 28.8428 4.17731V3.26687H34.4567C34.9264 3.26687 35.3093 3.62167 35.3093 4.05681L35.2949 23.3769Z" fill="black"/>
<path d="M29.9001 10.0102C30.3909 10.0102 30.7888 9.64151 30.7888 9.18675C30.7888 8.732 30.3909 8.36334 29.9001 8.36334C29.4093 8.36334 29.0114 8.732 29.0114 9.18675C29.0114 9.64151 29.4093 10.0102 29.9001 10.0102Z" fill="black"/>
<path d="M24.185 10.0102C24.6758 10.0102 25.0737 9.64151 25.0737 9.18675C25.0737 8.732 24.6758 8.36334 24.185 8.36334C23.6942 8.36334 23.2963 8.732 23.2963 9.18675C23.2963 9.64151 23.6942 10.0102 24.185 10.0102Z" fill="black"/>
<path d="M18.4772 10.0102C18.968 10.0102 19.3659 9.64151 19.3659 9.18675C19.3659 8.732 18.968 8.36334 18.4772 8.36334C17.9863 8.36334 17.5885 8.732 17.5885 9.18675C17.5885 9.64151 17.9863 10.0102 18.4772 10.0102Z" fill="black"/>
<path d="M12.7693 10.0102C13.2601 10.0102 13.658 9.64151 13.658 9.18675C13.658 8.732 13.2601 8.36334 12.7693 8.36334C12.2785 8.36334 11.8806 8.732 11.8806 9.18675C11.8806 9.64151 12.2785 10.0102 12.7693 10.0102Z" fill="black"/>
<path d="M7.05419 10.0102C7.545 10.0102 7.94288 9.64151 7.94288 9.18675C7.94288 8.732 7.545 8.36334 7.05419 8.36334C6.56338 8.36334 6.1655 8.732 6.1655 9.18675C6.1655 9.64151 6.56338 10.0102 7.05419 10.0102Z" fill="black"/>
<path d="M29.9001 15.3055C30.3909 15.3055 30.7888 14.9369 30.7888 14.4821C30.7888 14.0273 30.3909 13.6587 29.9001 13.6587C29.4093 13.6587 29.0114 14.0273 29.0114 14.4821C29.0114 14.9369 29.4093 15.3055 29.9001 15.3055Z" fill="black"/>
<path d="M24.185 15.3055C24.6758 15.3055 25.0737 14.9369 25.0737 14.4821C25.0737 14.0273 24.6758 13.6587 24.185 13.6587C23.6942 13.6587 23.2963 14.0273 23.2963 14.4821C23.2963 14.9369 23.6942 15.3055 24.185 15.3055Z" fill="black"/>
<path d="M18.4772 15.3055C18.968 15.3055 19.3659 14.9369 19.3659 14.4821C19.3659 14.0273 18.968 13.6587 18.4772 13.6587C17.9863 13.6587 17.5885 14.0273 17.5885 14.4821C17.5885 14.9369 17.9863 15.3055 18.4772 15.3055Z" fill="black"/>
<path d="M7.05419 15.3055C7.545 15.3055 7.94288 14.9369 7.94288 14.4821C7.94288 14.0273 7.545 13.6587 7.05419 13.6587C6.56338 13.6587 6.1655 14.0273 6.1655 14.4821C6.1655 14.9369 6.56338 15.3055 7.05419 15.3055Z" fill="black"/>
<path d="M29.9001 20.5942C30.3909 20.5942 30.7888 20.2256 30.7888 19.7708C30.7888 19.316 30.3909 18.9474 29.9001 18.9474C29.4093 18.9474 29.0114 19.316 29.0114 19.7708C29.0114 20.2256 29.4093 20.5942 29.9001 20.5942Z" fill="black"/>
<path d="M24.185 20.5942C24.6758 20.5942 25.0737 20.2256 25.0737 19.7708C25.0737 19.316 24.6758 18.9474 24.185 18.9474C23.6942 18.9474 23.2963 19.316 23.2963 19.7708C23.2963 20.2256 23.6942 20.5942 24.185 20.5942Z" fill="black"/>
<path d="M18.4772 20.5942C18.968 20.5942 19.3659 20.2256 19.3659 19.7708C19.3659 19.316 18.968 18.9474 18.4772 18.9474C17.9863 18.9474 17.5885 19.316 17.5885 19.7708C17.5885 20.2256 17.9863 20.5942 18.4772 20.5942Z" fill="black"/>
<path d="M12.7693 20.5942C13.2601 20.5942 13.658 20.2256 13.658 19.7708C13.658 19.316 13.2601 18.9474 12.7693 18.9474C12.2785 18.9474 11.8806 19.316 11.8806 19.7708C11.8806 20.2256 12.2785 20.5942 12.7693 20.5942Z" fill="black"/>
<path d="M7.05419 20.5942C7.545 20.5942 7.94288 20.2256 7.94288 19.7708C7.94288 19.316 7.545 18.9474 7.05419 18.9474C6.56338 18.9474 6.1655 19.316 6.1655 19.7708C6.1655 20.2256 6.56338 20.5942 7.05419 20.5942Z" fill="black"/>
<path d="M15.4499 11.2888H10.0816C9.66254 11.2888 9.31573 11.6035 9.31573 11.9985V16.9724C9.31573 17.3607 9.65532 17.682 10.0816 17.682H15.4499C15.8689 17.682 16.2158 17.3674 16.2158 16.9724V11.9985C16.2158 11.6035 15.8689 11.2888 15.4499 11.2888ZM14.684 16.2628H10.8475V12.7014H14.684V16.2628Z" fill="black"/>
</svg>
