<svg width="25" height="25" viewBox="0 0 25 25" fill="none" xmlns="http://www.w3.org/2000/svg">
<path d="M24.3811 0H20.527C20.19 0 19.9142 0.275735 19.9142 0.618873V1.96078H5.08578V0.618873C5.08578 0.281863 4.81005 0.00612745 4.47304 0H0.618873C0.281863 0 0.00612745 0.275735 0 0.618873V4.47304C0 4.81005 0.275735 5.08578 0.618873 5.08578H1.96078V19.9142H0.618873C0.281863 19.9142 0.00612745 20.19 0 20.527V24.3811C0 24.7181 0.275735 24.9939 0.618873 25H4.47304C4.81005 25 5.08578 24.7243 5.08578 24.3811V23.0392H19.9142V24.3811C19.9142 24.7181 20.19 24.9939 20.527 25H24.3811C24.7181 25 24.9939 24.7243 25 24.3811V20.527C25 20.19 24.7243 19.9142 24.3811 19.9142H23.0392V5.08578H24.3811C24.7181 5.08578 24.9939 4.81005 25 4.47304V0.618873C25 0.275735 24.7243 0 24.3811 0ZM1.22549 3.86029V1.22549H3.86029V3.86029H1.22549ZM3.86029 23.7745H1.22549V21.1397H3.86029V23.7745ZM19.9142 20.527V21.8137H5.08578V20.527C5.08578 20.19 4.81005 19.9142 4.47304 19.9142H3.18627V5.08578H4.47304C4.81005 5.08578 5.08578 4.81005 5.08578 4.47304V3.18627H19.9142V4.47304C19.9142 4.81005 20.19 5.08578 20.527 5.08578H21.8137V19.9142H20.527C20.19 19.9142 19.9142 20.19 19.9142 20.527ZM23.7745 21.1397V23.7745H21.1397V21.1397H23.7745ZM23.7745 3.86029H21.1397V1.22549H23.7745V3.86029Z" fill="#202020"/>
</svg>
