<svg width="41" height="34" viewBox="0 0 41 34" fill="none" xmlns="http://www.w3.org/2000/svg">
<path d="M39.3284 13.3238C39.4484 13.4109 39.5901 13.4653 39.7318 13.4653C39.83 13.4653 39.9281 13.4435 40.0153 13.4C40.2443 13.2912 40.386 13.0627 40.386 12.8124V9.33049C40.386 9.13463 40.2988 8.93877 40.1353 8.81908L29.4827 0.440682C28.7413 -0.146894 27.6945 -0.146894 26.9422 0.440682L22.9298 3.59618V2.36662C22.9298 2.00755 22.6354 1.71376 22.2756 1.71376H19.4843C19.1245 1.71376 18.8301 2.00755 18.8301 2.36662V6.81697L16.3005 8.81908C16.1479 8.93877 16.0497 9.13463 16.0497 9.33049V12.8124C16.0497 13.0627 16.1915 13.2912 16.4205 13.4C16.6494 13.5088 16.9111 13.4762 17.1074 13.3238L17.4454 13.0627V19.4281L11.3395 14.6295C10.5872 14.042 9.55134 14.042 8.79901 14.6295L0.250777 21.354C0.0981302 21.4737 0 21.6696 0 21.8654V25.3474C0 25.5976 0.141744 25.8261 0.370714 25.9349C0.457941 25.9785 0.556071 26.0002 0.654202 26.0002C0.795945 26.0002 0.937689 25.9567 1.05763 25.8588L1.39563 25.5976V32.3547H0.654202C0.294391 32.3547 0 32.6485 0 33.0076C0 33.3667 0.294391 33.6605 0.654202 33.6605H39.7318C40.0917 33.6605 40.386 33.3667 40.386 33.0076C40.386 32.6485 40.0917 32.3547 39.7318 32.3547H38.9904V13.0627L39.3284 13.3238ZM20.1494 3.01949H21.6323V4.62988L20.1494 5.79415V3.01949ZM17.3581 9.64604L27.76 1.4635C28.0325 1.25676 28.4033 1.25676 28.6758 1.4635L39.0776 9.64604V11.4632L28.6213 3.24799C28.5014 3.15006 28.3596 3.10653 28.2179 3.10653C28.0762 3.10653 27.9344 3.15006 27.8145 3.24799L17.3581 11.4632V9.64604ZM1.3084 22.181L9.61676 15.6524C9.88935 15.4347 10.2601 15.4347 10.5326 15.6524L17.4454 21.082V22.8991L10.4781 17.426C10.2383 17.241 9.90025 17.241 9.67128 17.426L1.3084 24.009V22.181ZM2.70403 24.5639L10.0747 18.7643L17.4454 24.5639V32.3547H14.5669V24.651C14.5669 24.2919 14.2725 23.9981 13.9127 23.9981H6.23672C5.87691 23.9981 5.58252 24.2919 5.58252 24.651V32.3547H2.70403V24.5639ZM6.89092 28.0894H13.2585V29.5692H6.89092V28.0894ZM13.2585 26.7837H6.89092V25.3038H13.2585V26.7837ZM6.89092 30.8749H13.2585V32.3547H6.89092V30.8749ZM25.8192 27.48C25.8083 27.48 25.7864 27.48 25.7755 27.48C25.6011 27.48 25.4375 27.5453 25.3176 27.6759C25.1977 27.7956 25.1213 27.9697 25.1213 28.1329C25.1213 28.307 25.1868 28.4702 25.3176 28.5899C25.4375 28.7096 25.612 28.7858 25.7755 28.7858C25.7864 28.7858 25.8083 28.7858 25.8192 28.7858V32.3547H22.9407V23.9111H25.8192V27.48ZM37.682 32.3547H27.1276V23.2582C27.1276 22.8991 26.8332 22.6053 26.4734 22.6053H22.2865C21.9267 22.6053 21.6323 22.8991 21.6323 23.2582V32.3547H18.7538V12.029L28.2179 4.58636L37.682 12.029V32.3547Z" fill="black"/>
<path d="M29.9632 29.4822H34.1501C34.5099 29.4822 34.8043 29.1884 34.8043 28.8293V23.2582C34.8043 22.8991 34.5099 22.6053 34.1501 22.6053H29.9632C29.6034 22.6053 29.309 22.8991 29.309 23.2582V28.8293C29.309 29.1884 29.6034 29.4822 29.9632 29.4822ZM30.6174 28.1764V26.0002H33.4959V28.1764H30.6174ZM33.4959 23.9111V24.6945H30.6174V23.9111H33.4959Z" fill="black"/>
<path d="M29.9632 19.7328H34.1501C34.5099 19.7328 34.8043 19.439 34.8043 19.0799V13.5088C34.8043 13.1497 34.5099 12.8559 34.1501 12.8559H29.9632C29.6034 12.8559 29.309 13.1497 29.309 13.5088V19.0799C29.309 19.439 29.6034 19.7328 29.9632 19.7328ZM30.6174 18.427V16.2508H33.4959V18.427H30.6174ZM33.4959 14.1617V14.9451H30.6174V14.1617H33.4959Z" fill="black"/>
<path d="M26.4741 12.8559H22.2872C21.9274 12.8559 21.633 13.1497 21.633 13.5088V19.0799C21.633 19.439 21.9274 19.7328 22.2872 19.7328H26.4741C26.8339 19.7328 27.1283 19.439 27.1283 19.0799V13.5088C27.1283 13.1497 26.8339 12.8559 26.4741 12.8559ZM25.8199 14.1617V14.9451H22.9414V14.1617H25.8199ZM22.9414 18.427V16.2508H25.8199V18.427H22.9414Z" fill="black"/>
</svg>
