<svg width="41" height="27" viewBox="0 0 41 27" fill="none" xmlns="http://www.w3.org/2000/svg">
<path d="M18.8386 19.5338H22.3059C22.7826 19.5338 23.1727 19.1431 23.1727 18.6656C23.1727 18.1881 22.7826 17.7975 22.3059 17.7975H18.8386C18.3619 17.7975 17.9718 18.1881 17.9718 18.6656C17.9718 19.1431 18.3619 19.5338 18.8386 19.5338Z" fill="black"/>
<path d="M40.1332 24.7428H38.3418H37.0416V0.868169C37.0416 0.390676 36.6515 0 36.1748 0H4.9697C4.49295 0 4.10289 0.390676 4.10289 0.868169V24.7428H1.93587H0.866808C0.390063 24.7428 0 25.1335 0 25.611C0 26.0885 0.390063 26.4792 0.866808 26.4792H1.06906H6.3277H35.1057H38.3273H40.1332C40.6099 26.4792 41 26.0885 41 25.611C41 25.1335 40.6099 24.7428 40.1332 24.7428ZM14.5046 23.8747C14.5046 24.3522 14.1145 24.7428 13.6378 24.7428C13.161 24.7428 12.771 24.3522 12.771 23.8747V23.0065H14.5046V23.8747ZM11.0374 21.2702V20.402C11.0374 19.9245 11.4274 19.5338 11.9042 19.5338C12.3809 19.5338 12.771 19.9245 12.771 20.402V21.2702H11.0374ZM13.45 18.3184C12.7854 17.8264 11.9475 17.6817 11.1529 17.9132C11.4852 16.8135 12.482 16.0611 13.6378 16.0611H27.5067C28.648 16.0611 29.6593 16.828 29.9915 17.9132C29.2114 17.6817 28.3591 17.8264 27.6945 18.3184C27.03 18.8103 26.6399 19.5772 26.6399 20.402V21.2702H14.5046V20.402C14.5046 19.5772 14.1145 18.8103 13.45 18.3184ZM20.0955 11.9373C19.6043 11.2428 18.8097 10.8232 17.9718 10.8232C17.1194 10.8232 16.3249 11.2428 15.8481 11.9373C15.3569 12.6319 15.2414 13.529 15.5303 14.3248H14.5046V11.7203C14.5046 10.2878 15.6748 9.11578 17.105 9.11578H24.0395C25.4697 9.11578 26.6399 10.2878 26.6399 11.7203V14.3248H20.4133C20.7023 13.529 20.5867 12.6319 20.0955 11.9373ZM18.7664 13.7894C18.6364 14.1078 18.3185 14.3248 17.9718 14.3248C17.4951 14.3248 17.105 13.9341 17.105 13.4566C17.105 13.1094 17.3217 12.791 17.6395 12.6608C17.9574 12.5306 18.333 12.6029 18.5786 12.8489C18.8242 13.0949 18.9109 13.4711 18.7664 13.7894ZM16.0793 24.7428C16.1804 24.4679 16.2382 24.164 16.2382 23.8747V23.0065H24.9063V23.8747C24.9063 24.164 24.9641 24.4679 25.0652 24.7428H16.0793ZM28.3735 23.8747C28.3735 24.3522 27.9834 24.7428 27.5067 24.7428C27.0299 24.7428 26.6399 24.3522 26.6399 23.8747V23.0065H28.3735V23.8747ZM28.3735 20.402C28.3735 19.9245 28.7636 19.5338 29.2403 19.5338C29.7171 19.5338 30.1071 19.9245 30.1071 20.402V21.2702H28.3735V20.402ZM35.308 24.7428H35.1057H29.9482C30.0493 24.4679 30.1071 24.164 30.1071 23.8747V23.0065H30.9739C31.4507 23.0065 31.8407 22.6158 31.8407 22.1383V18.6656C31.8407 16.5965 30.3961 14.8312 28.3735 14.4116V13.4566H30.1071C30.5839 13.4566 30.9739 13.066 30.9739 12.5885C30.9739 12.111 30.5839 11.7203 30.1071 11.7203H28.3735C28.3735 9.31835 26.4376 7.37944 24.0395 7.37944H17.105C14.7068 7.37944 12.771 9.31835 12.771 11.7203H11.0374C10.5606 11.7203 10.1705 12.111 10.1705 12.5885C10.1705 13.066 10.5606 13.4566 11.0374 13.4566H12.771V14.4116C10.7484 14.8312 9.30373 16.5965 9.30373 18.6656V22.1383C9.30373 22.6158 9.6938 23.0065 10.1705 23.0065H11.0374V23.8747C11.0374 24.164 11.0951 24.4679 11.1963 24.7428H6.3277H5.8365V5.20902H35.308V24.7428ZM35.308 3.47268H5.8365V1.73634H35.308V3.47268Z" fill="black"/>
</svg>
