<svg width="102" height="75" viewBox="0 0 102 75" fill="none" xmlns="http://www.w3.org/2000/svg">
<mask id="mask0" mask-type="alpha" maskUnits="userSpaceOnUse" x="0" y="0" width="102" height="75">
<rect width="101.384" height="75" rx="4" fill="#FF3357"/>
</mask>
<g mask="url(#mask0)">
<path d="M37.1274 64.259C41.0678 61.6263 43.6545 57.1745 43.6545 52.1483C43.6545 44.1064 37.0307 37.5484 28.908 37.5484C20.7854 37.5484 14.1615 44.1064 14.1615 52.1483C14.1615 57.1745 16.7482 61.6263 20.6887 64.259C16.4823 65.4557 13.4121 69.2852 13.4121 73.8088V91.209C13.4121 91.9989 14.0648 92.6451 14.8626 92.6451H42.9776C43.7754 92.6451 44.4281 91.9989 44.4281 91.209V73.8088C44.4039 69.2852 41.3337 65.4318 37.1274 64.259ZM32.2441 68.7347L30.4794 66.7482H34.0088L32.2441 68.7347ZM26.6114 66.7482L30.1167 70.6974L26.8532 73.1147L25.2577 66.7482H26.6114ZM37.3208 67.3705C37.5142 67.4423 37.6834 67.538 37.8526 67.6338L37.3449 72.8754L34.3715 70.6974L37.3208 67.3705ZM17.0625 52.1483C17.0625 45.686 22.3809 40.4205 28.908 40.4205C35.4351 40.4205 40.7536 45.686 40.7536 52.1483C40.7536 58.6105 35.4351 63.8761 28.908 63.8761C22.3567 63.8761 17.0625 58.6105 17.0625 52.1483ZM16.2889 73.8088C16.2889 70.2905 18.8997 67.3705 22.3084 66.8439L24.5566 75.915C24.6775 76.3937 25.0159 76.7527 25.4752 76.9203C25.6444 76.9681 25.7895 77.016 25.9587 77.016C26.273 77.016 26.5631 76.9203 26.829 76.7288L30.7936 73.7609V89.749H23.4446V75.5081C23.4446 74.7183 22.7918 74.0721 21.9941 74.0721C21.1963 74.0721 20.5436 74.7183 20.5436 75.5081V89.749H16.2889V73.8088ZM41.503 89.773H33.6946V73.7849L37.6592 76.7049C37.9251 76.8963 38.2152 76.9921 38.5295 76.9921C38.7229 76.9921 38.9163 76.9442 39.1097 76.8724C39.5932 76.657 39.9074 76.2022 39.9558 75.6996L40.4876 70.2187C41.1162 71.2718 41.4788 72.4924 41.4788 73.8088L41.503 89.773Z" fill="#000462"/>
<path d="M28.3764 49.4677C28.1589 48.9411 27.627 48.5821 27.0468 48.5821C26.4667 48.5821 25.9348 48.9411 25.7172 49.4677C25.4755 50.0421 25.6447 50.7123 26.104 51.1191C26.5875 51.526 27.2886 51.5739 27.8204 51.2388C28.4006 50.8559 28.6424 50.1139 28.3764 49.4677C28.3523 49.3959 28.4248 49.5634 28.3764 49.4677Z" fill="#000462"/>
<path d="M35.1935 50.5686C35.4352 51.119 35.9671 51.4781 36.5714 51.4541C37.2241 51.4302 37.7802 50.9754 37.9494 50.3771C38.0944 49.8266 37.8769 49.2282 37.4175 48.8932C36.9099 48.5102 36.2088 48.5102 35.7011 48.8692C35.1451 49.2522 34.9276 49.9702 35.1935 50.5686C35.2177 50.6643 35.1451 50.4728 35.1935 50.5686Z" fill="#000462"/>
<path d="M72.6156 36.615C72.8574 36.7586 73.1233 36.8304 73.3892 36.8304C73.631 36.8304 73.8727 36.7825 74.0903 36.6629C74.5496 36.3996 74.8397 35.9209 74.8397 35.3943V32.0435H76.3143C78.8043 32.0435 80.8108 30.0331 80.8108 27.5918V12.6089C80.8108 10.1437 78.7801 8.15712 76.3143 8.15712H61.2777V7.55876C61.2777 5.09353 59.2471 3.10698 56.7813 3.10698H30.1651C27.6751 3.08305 25.6444 5.09353 25.6444 7.53482V22.5416C25.6444 25.0069 27.6751 26.9934 30.1409 26.9934H31.6155V30.3442C31.6155 30.8708 31.9056 31.3494 32.3649 31.6127C32.5825 31.7324 32.8243 31.7803 33.066 31.7803C33.3319 31.7803 33.5978 31.7085 33.8396 31.5649L41.0436 27.0173H45.1533V27.6157C45.1533 30.0809 47.184 32.0675 49.6498 32.0675H65.3391L72.6156 36.615ZM40.6568 24.1452C40.3909 24.1452 40.1008 24.217 39.8832 24.3606L34.5407 27.7354V25.5813C34.5407 24.7914 33.8879 24.1452 33.0902 24.1452H30.1651C29.2706 24.1452 28.5695 23.4272 28.5695 22.5656V7.53482C28.5695 6.64926 29.2948 5.95516 30.1651 5.95516H56.7813C57.6757 5.95516 58.3768 6.67319 58.3768 7.53482V8.13318H49.6739C47.7158 8.13318 46.0236 9.37776 45.4192 11.125H34.3714C33.5737 11.125 32.921 11.7712 32.921 12.561C32.921 13.3509 33.5737 13.9971 34.3714 13.9971H45.1775V16.3905H34.3714C33.5737 16.3905 32.921 17.0367 32.921 17.8266C32.921 18.6164 33.5737 19.2626 34.3714 19.2626H45.1775V24.1452H40.6568ZM48.0784 27.6157V12.6089C48.0784 11.7233 48.8037 11.0292 49.6739 11.0292H76.2902C77.1846 11.0292 77.8857 11.7473 77.8857 12.6089V27.6157C77.8857 28.5013 77.1604 29.1954 76.2902 29.1954H73.365C72.5673 29.1954 71.9146 29.8416 71.9146 30.6314V32.7855L66.572 29.4108C66.3302 29.2672 66.0643 29.1954 65.7984 29.1954H49.6739C48.8037 29.1954 48.0784 28.4773 48.0784 27.6157Z" fill="#000462"/>
<path d="M53.9046 19.0472H72.108C72.9058 19.0472 73.5585 18.401 73.5585 17.6112C73.5585 16.8213 72.9058 16.1751 72.108 16.1751H53.9046C53.1068 16.1751 52.4541 16.8213 52.4541 17.6112C52.4541 18.401 53.1068 19.0472 53.9046 19.0472Z" fill="#000462"/>
<path d="M73.5585 22.9006C73.5585 22.1108 72.9058 21.4645 72.108 21.4645H53.9046C53.1068 21.4645 52.4541 22.1108 52.4541 22.9006C52.4541 23.6904 53.1068 24.3366 53.9046 24.3366H72.108C72.9058 24.3366 73.5585 23.6904 73.5585 22.9006Z" fill="#000462"/>
<path d="M84.5822 64.259C88.5226 61.6263 91.1093 57.1745 91.1093 52.1483C91.1093 44.1064 84.4855 37.5484 76.3628 37.5484C68.2402 37.5484 61.6164 44.1064 61.6164 52.1483C61.6164 57.1745 64.203 61.6263 68.1435 64.259C63.9371 65.4557 60.8669 69.2852 60.8669 73.8088V91.209C60.8669 91.9989 61.5197 92.6451 62.3174 92.6451H90.4324C91.2302 92.6451 91.8829 91.9989 91.8829 91.209V73.8088C91.8587 69.2852 88.7886 65.4318 84.5822 64.259ZM81.512 66.7482C80.4 68.4715 78.466 69.5724 76.3387 69.5724C74.2113 69.5724 72.2773 68.4715 71.1653 66.7482H81.512ZM64.4931 52.1483C64.4931 45.686 69.8115 40.4205 76.3387 40.4205C82.8658 40.4205 88.1842 45.686 88.1842 52.1483C88.1842 58.6105 82.8658 63.8761 76.3387 63.8761C69.8115 63.8761 64.4931 58.6105 64.4931 52.1483ZM63.7437 73.8088C63.7437 70.8649 65.581 68.3279 68.1677 67.2748C69.6181 70.3862 72.8092 72.4446 76.3628 72.4446C79.9165 72.4446 83.0834 70.3862 84.558 67.2748C87.1447 68.3279 88.982 70.8649 88.982 73.8088V78.9068H83.9053V75.5321C83.9053 74.7422 83.2526 74.096 82.4548 74.096C81.6571 74.096 81.0044 74.7422 81.0044 75.5321V89.773H63.7679V73.8088H63.7437ZM83.8811 89.773V81.7789H88.9578V89.773H83.8811Z" fill="#000462"/>
<path d="M76.8706 50.5686C77.1365 51.167 77.7651 51.526 78.4178 51.4303C78.998 51.3345 79.4573 50.9277 79.6024 50.3532C79.7474 49.7788 79.5057 49.1326 78.998 48.7975C78.4178 48.4145 77.6442 48.5103 77.1607 48.965C76.7739 49.4198 76.6531 50.0421 76.8706 50.5686C76.919 50.6644 76.8223 50.4729 76.8706 50.5686Z" fill="#000462"/>
<path d="M70.15 49.7309C70.1258 49.5394 70.0291 49.3719 69.9324 49.2043C69.2072 48.1512 67.4908 48.5102 67.2974 49.8027C67.1282 50.9515 68.4094 51.8371 69.4489 51.2627C69.9808 50.9755 70.2709 50.3532 70.15 49.7309C70.1258 49.6591 70.1742 49.8266 70.15 49.7309Z" fill="#000462"/>
<path d="M76.6288 54.9486C76.1694 54.4938 75.4442 54.4938 74.9849 54.9486C74.5981 55.3315 74.0904 55.5469 73.5344 55.5469C72.9784 55.5469 72.4707 55.3315 72.0839 54.9486C71.6246 54.4938 70.8994 54.4938 70.4401 54.9486C69.9808 55.4033 69.9808 56.1214 70.4401 56.5761C71.2862 57.4138 72.4224 57.8446 73.5344 57.8446C74.6464 57.8446 75.7826 57.4138 76.6288 56.5761C77.0881 56.1214 77.0881 55.3794 76.6288 54.9486Z" fill="#000462"/>
<path d="M34.9033 55.8342C34.444 55.3795 33.7187 55.3795 33.2594 55.8342C32.8726 56.2172 32.365 56.4326 31.809 56.4326C31.2529 56.4326 30.7453 56.2172 30.3585 55.8342C29.8992 55.3795 29.1739 55.3795 28.7146 55.8342C28.2553 56.289 28.2553 57.007 28.7146 57.4617C29.5607 58.2994 30.6969 58.7302 31.809 58.7302C32.921 58.7302 34.0572 58.2994 34.9033 57.4617C35.3626 57.007 35.3626 56.289 34.9033 55.8342Z" fill="#000462"/>
</g>
</svg>
