<svg width="81" height="60" viewBox="0 0 81 60" fill="none" xmlns="http://www.w3.org/2000/svg">
<mask id="mask0" mask-type="alpha" maskUnits="userSpaceOnUse" x="0" y="0" width="81" height="60">
<rect y="7.62939e-06" width="81" height="60" rx="4" fill="#FF3357"/>
</mask>
<g mask="url(#mask0)">
<path d="M29.6627 51.4073C32.8109 49.3011 34.8775 45.7396 34.8775 41.7187C34.8775 35.2852 29.5854 30.0388 23.0959 30.0388C16.6064 30.0388 11.3143 35.2852 11.3143 41.7187C11.3143 45.7396 13.3809 49.3011 16.5291 51.4073C13.1685 52.3647 10.7156 55.4282 10.7156 59.0471V72.9673C10.7156 73.5991 11.2371 74.1161 11.8744 74.1161H34.3367C34.9741 74.1161 35.4955 73.5991 35.4955 72.9673V59.0471C35.4762 55.4282 33.0233 52.3455 29.6627 51.4073ZM25.7612 54.9878L24.3513 53.3986H27.1712L25.7612 54.9878ZM21.2611 53.3986L24.0616 56.5579L21.4542 58.4918L20.1795 53.3986H21.2611ZM29.8172 53.8964C29.9717 53.9539 30.1069 54.0305 30.2421 54.1071L29.8365 58.3004L27.4609 56.5579L29.8172 53.8964ZM13.632 41.7187C13.632 36.5489 17.8811 32.3364 23.0959 32.3364C28.3107 32.3364 32.5598 36.5489 32.5598 41.7187C32.5598 46.8885 28.3107 51.1009 23.0959 51.1009C17.8618 51.1009 13.632 46.8885 13.632 41.7187ZM13.014 59.0471C13.014 56.2324 15.0999 53.8964 17.8232 53.4752L19.6194 60.7321C19.7159 61.115 19.9863 61.4022 20.3533 61.5363C20.4885 61.5746 20.6044 61.6129 20.7396 61.6129C20.9907 61.6129 21.2224 61.5363 21.4349 61.3831L24.6024 59.0088V71.7993H18.7309V60.4066C18.7309 59.7747 18.2094 59.2577 17.5721 59.2577C16.9347 59.2577 16.4132 59.7747 16.4132 60.4066V71.7993H13.014V59.0471ZM33.1585 71.8184H26.9201V59.028L30.0876 61.3639C30.3 61.5171 30.5318 61.5937 30.7829 61.5937C30.9374 61.5937 31.0919 61.5554 31.2464 61.498C31.6327 61.3256 31.8838 60.9618 31.9224 60.5597L32.3473 56.175C32.8495 57.0175 33.1392 57.994 33.1392 59.0471L33.1585 71.8184Z" fill="#000462"/>
<path d="M22.6711 39.5742C22.4973 39.1529 22.0724 38.8657 21.6089 38.8657C21.1453 38.8657 20.7204 39.1529 20.5466 39.5742C20.3534 40.0337 20.4886 40.5698 20.8556 40.8953C21.2419 41.2208 21.802 41.2591 22.2269 40.9911C22.6904 40.6847 22.8836 40.0911 22.6711 39.5742C22.6518 39.5167 22.7098 39.6507 22.6711 39.5742Z" fill="#000462"/>
<path d="M28.1176 40.4549C28.3107 40.8953 28.7356 41.1825 29.2185 41.1633C29.7399 41.1442 30.1842 40.7804 30.3194 40.3017C30.4352 39.8613 30.2614 39.3826 29.8945 39.1146C29.4889 38.8082 28.9287 38.8082 28.5232 39.0954C28.0789 39.4018 27.9051 39.9762 28.1176 40.4549C28.1369 40.5315 28.0789 40.3783 28.1176 40.4549Z" fill="#000462"/>
<path d="M58.0157 29.292C58.2089 29.4069 58.4213 29.4643 58.6338 29.4643C58.8269 29.4643 59.02 29.426 59.1939 29.3303C59.5608 29.1197 59.7926 28.7367 59.7926 28.3155V25.6348H60.9708C62.9601 25.6348 64.5632 24.0265 64.5632 22.0734V10.0871C64.5632 8.11495 62.9408 6.52571 60.9708 6.52571H48.9574V6.04703C48.9574 4.07484 47.335 2.4856 45.365 2.4856H24.1002C22.1108 2.46646 20.4885 4.07484 20.4885 6.02788V18.0333C20.4885 20.0055 22.1108 21.5947 24.0809 21.5947H25.259V24.2754C25.259 24.6966 25.4908 25.0796 25.8578 25.2902C26.0316 25.3859 26.2247 25.4242 26.4179 25.4242C26.6303 25.4242 26.8428 25.3668 27.0359 25.2519L32.7915 21.6139H36.0749V22.0926C36.0749 24.0648 37.6973 25.654 39.6673 25.654H52.2022L58.0157 29.292ZM32.4825 19.3162C32.2701 19.3162 32.0383 19.3736 31.8645 19.4885L27.596 22.1883V20.465C27.596 19.8332 27.0746 19.3162 26.4372 19.3162H24.1002C23.3856 19.3162 22.8255 18.7418 22.8255 18.0525V6.02788C22.8255 5.31942 23.4049 4.76415 24.1002 4.76415H45.365C46.0796 4.76415 46.6397 5.33857 46.6397 6.02788V6.50657H39.6867C38.1222 6.50657 36.7702 7.50223 36.2874 8.89999H27.4608C26.8235 8.89999 26.302 9.41697 26.302 10.0488C26.302 10.6807 26.8235 11.1977 27.4608 11.1977H36.0942V13.1124H27.4608C26.8235 13.1124 26.302 13.6294 26.302 14.2613C26.302 14.8931 26.8235 15.4101 27.4608 15.4101H36.0942V19.3162H32.4825ZM38.4119 22.0926V10.0871C38.4119 9.37868 38.9914 8.8234 39.6867 8.8234H60.9515C61.6661 8.8234 62.2262 9.39783 62.2262 10.0871V22.0926C62.2262 22.801 61.6468 23.3563 60.9515 23.3563H58.6145C57.9771 23.3563 57.4556 23.8733 57.4556 24.5052V26.2284L53.1872 23.5286C52.9941 23.4137 52.7816 23.3563 52.5691 23.3563H39.6867C38.9914 23.3563 38.4119 22.7819 38.4119 22.0926Z" fill="#000462"/>
<path d="M43.0667 15.2378H57.6102C58.2475 15.2378 58.769 14.7208 58.769 14.089C58.769 13.4571 58.2475 12.9401 57.6102 12.9401H43.0667C42.4293 12.9401 41.9078 13.4571 41.9078 14.089C41.9078 14.7208 42.4293 15.2378 43.0667 15.2378Z" fill="#000462"/>
<path d="M58.769 18.3205C58.769 17.6886 58.2475 17.1716 57.6102 17.1716H43.0667C42.4293 17.1716 41.9078 17.6886 41.9078 18.3205C41.9078 18.9524 42.4293 19.4693 43.0667 19.4693H57.6102C58.2475 19.4693 58.769 18.9524 58.769 18.3205Z" fill="#000462"/>
<path d="M67.5763 51.4073C70.7245 49.3011 72.7911 45.7396 72.7911 41.7187C72.7911 35.2852 67.4991 30.0388 61.0095 30.0388C54.52 30.0388 49.2279 35.2852 49.2279 41.7187C49.2279 45.7396 51.2946 49.3011 54.4427 51.4073C51.0821 52.3647 48.6292 55.4282 48.6292 59.0471V72.9673C48.6292 73.5991 49.1507 74.1161 49.7881 74.1161H72.2503C72.8877 74.1161 73.4092 73.5991 73.4092 72.9673V59.0471C73.3898 55.4282 70.937 52.3455 67.5763 51.4073ZM65.1234 53.3986C64.235 54.7772 62.6899 55.658 60.9902 55.658C59.2906 55.658 57.7455 54.7772 56.857 53.3986H65.1234ZM51.5263 41.7187C51.5263 36.5489 55.7754 32.3364 60.9902 32.3364C66.205 32.3364 70.4541 36.5489 70.4541 41.7187C70.4541 46.8885 66.205 51.1009 60.9902 51.1009C55.7754 51.1009 51.5263 46.8885 51.5263 41.7187ZM50.9276 59.0471C50.9276 56.692 52.3955 54.6623 54.4621 53.8199C55.6209 56.309 58.1704 57.9557 61.0095 57.9557C63.8487 57.9557 66.3788 56.309 67.557 53.8199C69.6236 54.6623 71.0915 56.692 71.0915 59.0471V63.1255H67.0355V60.4257C67.0355 59.7938 66.514 59.2769 65.8767 59.2769C65.2393 59.2769 64.7178 59.7938 64.7178 60.4257V71.8184H50.9469V59.0471H50.9276ZM67.0162 71.8184V65.4232H71.0722V71.8184H67.0162Z" fill="#000462"/>
<path d="M61.4151 40.455C61.6276 40.9337 62.1297 41.2209 62.6512 41.1443C63.1148 41.0677 63.4817 40.7422 63.5976 40.2826C63.7135 39.8231 63.5204 39.3061 63.1148 39.0381C62.6512 38.7317 62.0332 38.8083 61.6469 39.1721C61.3379 39.5359 61.2413 40.0337 61.4151 40.455C61.4538 40.5316 61.3765 40.3784 61.4151 40.455Z" fill="#000462"/>
<path d="M56.0459 39.7847C56.0266 39.6316 55.9493 39.4975 55.872 39.3635C55.2926 38.521 53.9213 38.8082 53.7668 39.8422C53.6316 40.7613 54.6553 41.4697 55.4858 41.0102C55.9107 40.7804 56.1424 40.2826 56.0459 39.7847C56.0266 39.7273 56.0652 39.8613 56.0459 39.7847Z" fill="#000462"/>
<path d="M61.2219 43.9589C60.855 43.5951 60.2756 43.5951 59.9086 43.9589C59.5996 44.2653 59.194 44.4376 58.7497 44.4376C58.3055 44.4376 57.8999 44.2653 57.5909 43.9589C57.2239 43.5951 56.6445 43.5951 56.2775 43.9589C55.9106 44.3227 55.9106 44.8971 56.2775 45.2609C56.9535 45.9311 57.8613 46.2757 58.7497 46.2757C59.6382 46.2757 60.5459 45.9311 61.2219 45.2609C61.5889 44.8971 61.5889 44.3036 61.2219 43.9589Z" fill="#000462"/>
<path d="M27.8856 44.6674C27.5187 44.3036 26.9393 44.3036 26.5723 44.6674C26.2633 44.9738 25.8577 45.1461 25.4134 45.1461C24.9692 45.1461 24.5636 44.9738 24.2546 44.6674C23.8876 44.3036 23.3082 44.3036 22.9412 44.6674C22.5743 45.0312 22.5743 45.6056 22.9412 45.9694C23.6172 46.6396 24.525 46.9842 25.4134 46.9842C26.3019 46.9842 27.2097 46.6396 27.8856 45.9694C28.2526 45.6056 28.2526 45.0312 27.8856 44.6674Z" fill="#000462"/>
</g>
</svg>
