<svg width="70" height="80" viewBox="0 0 70 80" fill="none" xmlns="http://www.w3.org/2000/svg">
<path d="M20.8792 54.2584C24.3485 51.9374 26.6258 48.0128 26.6258 43.5818C26.6258 36.4922 20.7941 30.7108 13.6428 30.7108C6.49151 30.7108 0.659793 36.4922 0.659793 43.5818C0.659793 48.0128 2.93714 51.9374 6.40637 54.2584C2.70302 55.3134 0 58.6894 0 62.6773V78.017C0 78.7133 0.574658 79.283 1.27702 79.283H26.0299C26.7322 79.283 27.3069 78.7133 27.3069 78.017V62.6773C27.2856 58.6894 24.5826 55.2923 20.8792 54.2584ZM16.58 58.2041L15.0262 56.4528H18.1337L16.58 58.2041ZM11.6209 56.4528L14.707 59.9343L11.8337 62.0654L10.429 56.4528H11.6209ZM21.0495 57.0014C21.2198 57.0647 21.3688 57.1491 21.5178 57.2335L21.0708 61.8544L18.4529 59.9343L21.0495 57.0014ZM3.21383 43.5818C3.21383 37.8848 7.89623 33.2428 13.6428 33.2428C19.3894 33.2428 24.0718 37.8848 24.0718 43.5818C24.0718 49.2788 19.3894 53.9208 13.6428 53.9208C7.87494 53.9208 3.21383 49.2788 3.21383 43.5818ZM2.53275 62.6773C2.53275 59.5756 4.83139 57.0014 7.83238 56.5372L9.81176 64.5341C9.91817 64.9561 10.2161 65.2726 10.6205 65.4203C10.7695 65.4625 10.8972 65.5047 11.0462 65.5047C11.3229 65.5047 11.5783 65.4203 11.8124 65.2515L15.3029 62.6351V76.7299H8.83271V64.1754C8.83271 63.4791 8.25805 62.9094 7.55569 62.9094C6.85333 62.9094 6.27867 63.4791 6.27867 64.1754V76.7299H2.53275V62.6773ZM24.7316 76.751H17.857V62.6562L21.3475 65.2304C21.5816 65.3992 21.837 65.4836 22.1137 65.4836C22.284 65.4836 22.4542 65.4414 22.6245 65.3781C23.0502 65.1882 23.3269 64.7873 23.3694 64.3442L23.8377 59.5123C24.391 60.4407 24.7103 61.5168 24.7103 62.6773L24.7316 76.751Z" fill="#00CBB0"/>
<path d="M20.709 66.2221C20.4962 65.7368 20.028 65.4203 19.4959 65.4414C18.9425 65.4625 18.453 65.8423 18.304 66.3698C18.155 66.8973 18.3678 67.467 18.8148 67.7624C19.2617 68.0578 19.8577 68.0367 20.3046 67.7202C20.7516 67.3826 20.9431 66.7496 20.709 66.2221C20.6877 66.1588 20.7516 66.3065 20.709 66.2221Z" fill="#00CBB0"/>
<path d="M13.1747 41.2186C12.9831 40.7544 12.5149 40.4379 12.0041 40.4379C11.4933 40.4379 11.025 40.7544 10.8335 41.2186C10.6206 41.725 10.7696 42.3158 11.174 42.6745C11.5997 43.0332 12.2169 43.0754 12.6852 42.78C13.196 42.4424 13.4088 41.7883 13.1747 41.2186C13.1534 41.1553 13.2172 41.303 13.1747 41.2186Z" fill="#00CBB0"/>
<path d="M19.1764 42.1891C19.3893 42.6744 19.8575 42.9909 20.3896 42.9698C20.9643 42.9487 21.4538 42.5478 21.6028 42.0203C21.7305 41.535 21.5389 41.0075 21.1345 40.7121C20.6876 40.3745 20.0704 40.3745 19.6234 40.691C19.1339 41.0286 18.9423 41.6616 19.1764 42.1891C19.1977 42.2735 19.1339 42.1047 19.1764 42.1891Z" fill="#00CBB0"/>
<path d="M52.1234 29.8879C52.3363 30.0145 52.5704 30.0778 52.8045 30.0778C53.0173 30.0778 53.2302 30.0356 53.4217 29.9301C53.8261 29.698 54.0815 29.276 54.0815 28.8118V25.8578H55.3798C57.572 25.8578 59.3386 24.0854 59.3386 21.9332V8.7246C59.3386 6.5513 57.5508 4.8 55.3798 4.8H42.1414V4.2725C42.1414 2.0992 40.3536 0.347904 38.1826 0.347904H14.7494C12.5571 0.326804 10.7693 2.0992 10.7693 4.2514V17.4811C10.7693 19.6544 12.5571 21.4057 14.7281 21.4057H16.0264V24.3597C16.0264 24.8239 16.2818 25.2459 16.6862 25.478C16.8777 25.5835 17.0906 25.6257 17.3034 25.6257C17.5375 25.6257 17.7716 25.5624 17.9845 25.4358L24.327 21.4268H27.9452V21.9543C27.9452 24.1276 29.733 25.8789 31.904 25.8789H45.7171L52.1234 29.8879ZM23.9865 18.8948C23.7523 18.8948 23.4969 18.9581 23.3054 19.0847L18.6017 22.0598V20.1608C18.6017 19.4645 18.027 18.8948 17.3247 18.8948H14.7494C13.9619 18.8948 13.3446 18.2618 13.3446 17.5022V4.2514C13.3446 3.4707 13.9831 2.8588 14.7494 2.8588H38.1826C38.9701 2.8588 39.5874 3.4918 39.5874 4.2514V4.7789H31.9253C30.2013 4.7789 28.7114 5.8761 28.1793 7.4164H18.4527C17.7504 7.4164 17.1757 7.9861 17.1757 8.6824C17.1757 9.3787 17.7504 9.9484 18.4527 9.9484H27.9665V12.0584H18.4527C17.7504 12.0584 17.1757 12.6281 17.1757 13.3244C17.1757 14.0207 17.7504 14.5904 18.4527 14.5904H27.9665V18.8948H23.9865ZM30.5205 21.9543V8.7246C30.5205 7.9439 31.159 7.332 31.9253 7.332H55.3585C56.146 7.332 56.7633 7.965 56.7633 8.7246V21.9543C56.7633 22.735 56.1248 23.3469 55.3585 23.3469H52.7832C52.0809 23.3469 51.5062 23.9166 51.5062 24.6129V26.5119L46.8025 23.5368C46.5897 23.4102 46.3556 23.3469 46.1214 23.3469H31.9253C31.159 23.3469 30.5205 22.7139 30.5205 21.9543Z" fill="#00CBB0"/>
<path d="M35.6502 14.4005H51.6768C52.3791 14.4005 52.9538 13.8308 52.9538 13.1345C52.9538 12.4382 52.3791 11.8685 51.6768 11.8685H35.6502C34.9478 11.8685 34.3732 12.4382 34.3732 13.1345C34.3732 13.8308 34.9478 14.4005 35.6502 14.4005Z" fill="#00CBB0"/>
<path d="M52.9538 17.7976C52.9538 17.1013 52.3791 16.5316 51.6768 16.5316H35.6502C34.9478 16.5316 34.3732 17.1013 34.3732 17.7976C34.3732 18.4939 34.9478 19.0636 35.6502 19.0636H51.6768C52.3791 19.0636 52.9538 18.4939 52.9538 17.7976Z" fill="#00CBB0"/>
<path d="M62.659 54.2584C66.1282 51.9374 68.4056 48.0128 68.4056 43.5818C68.4056 36.4922 62.5739 30.7108 55.4226 30.7108C48.2713 30.7108 42.4396 36.4922 42.4396 43.5818C42.4396 48.0128 44.7169 51.9374 48.1861 54.2584C44.4828 55.3134 41.7798 58.6894 41.7798 62.6773V78.017C41.7798 78.7133 42.3544 79.283 43.0568 79.283H67.8097C68.512 79.283 69.0867 78.7133 69.0867 78.017V62.6773C69.0654 58.6894 66.3624 55.2923 62.659 54.2584ZM59.956 56.4528C58.9769 57.972 57.2743 58.9426 55.4013 58.9426C53.5283 58.9426 51.8256 57.972 50.8466 56.4528H59.956ZM44.9723 43.5818C44.9723 37.8848 49.6547 33.2428 55.4013 33.2428C61.1479 33.2428 65.8303 37.8848 65.8303 43.5818C65.8303 49.2788 61.1479 53.9208 55.4013 53.9208C49.6547 53.9208 44.9723 49.2788 44.9723 43.5818ZM44.3125 62.6773C44.3125 60.082 45.9301 57.8454 48.2074 56.917C49.4844 59.66 52.2939 61.4746 55.4226 61.4746C58.5513 61.4746 61.3394 59.66 62.6377 56.917C64.9151 57.8454 66.5326 60.082 66.5326 62.6773V67.1716H62.0631V64.1965C62.0631 63.5002 61.4884 62.9305 60.7861 62.9305C60.0837 62.9305 59.509 63.5002 59.509 64.1965V76.751H44.3338V62.6773H44.3125ZM62.0418 76.751V69.7036H66.5114V76.751H62.0418Z" fill="#00CBB0"/>
<path d="M55.8699 42.1892C56.104 42.7167 56.6574 43.0332 57.232 42.9488C57.7428 42.8644 58.1472 42.5057 58.2749 41.9993C58.4026 41.4929 58.1898 40.9232 57.7428 40.6278C57.232 40.2902 56.5509 40.3746 56.1253 40.7755C55.7847 41.1764 55.6783 41.725 55.8699 42.1892C55.9124 42.2736 55.8273 42.1048 55.8699 42.1892Z" fill="#00CBB0"/>
<path d="M49.9529 41.4507C49.9316 41.2819 49.8464 41.1342 49.7613 40.9865C49.1228 40.0581 47.6117 40.3746 47.4414 41.514C47.2924 42.5268 48.4204 43.3075 49.3356 42.8011C49.8039 42.5479 50.0593 41.9993 49.9529 41.4507C49.9316 41.3874 49.9741 41.5351 49.9529 41.4507Z" fill="#00CBB0"/>
<path d="M55.6569 46.0505C55.2525 45.6496 54.614 45.6496 54.2096 46.0505C53.869 46.3881 53.4221 46.578 52.9326 46.578C52.443 46.578 51.9961 46.3881 51.6555 46.0505C51.2512 45.6496 50.6126 45.6496 50.2083 46.0505C49.8039 46.4514 49.8039 47.0844 50.2083 47.4853C50.9532 48.2237 51.9535 48.6035 52.9326 48.6035C53.9116 48.6035 54.9119 48.2237 55.6569 47.4853C56.0613 47.0844 56.0613 46.4303 55.6569 46.0505Z" fill="#00CBB0"/>
<path d="M18.9211 46.8312C18.5168 46.4303 17.8782 46.4303 17.4739 46.8312C17.1333 47.1688 16.6864 47.3587 16.1968 47.3587C15.7073 47.3587 15.2604 47.1688 14.9198 46.8312C14.5154 46.4303 13.8769 46.4303 13.4725 46.8312C13.0681 47.2321 13.0681 47.8651 13.4725 48.266C14.2175 49.0045 15.2178 49.3843 16.1968 49.3843C17.1759 49.3843 18.1762 49.0045 18.9211 48.266C19.3255 47.8651 19.3255 47.2321 18.9211 46.8312Z" fill="#00CBB0"/>
</svg>
