<svg width="34" height="34" viewBox="0 0 34 34" fill="none" xmlns="http://www.w3.org/2000/svg">
<path d="M29.5333 32.8667V33.3667H30.0333H33.4333C33.4689 33.3667 33.5 33.3978 33.5 33.4333C33.5 33.4689 33.4689 33.5 33.4333 33.5H0.566667C0.531142 33.5 0.5 33.4689 0.5 33.4333C0.5 33.3978 0.531142 33.3667 0.566667 33.3667H5.66667H6.16667V32.8667V0.566667C6.16667 0.531142 6.19781 0.5 6.23333 0.5H20.9667C21.0022 0.5 21.0333 0.531142 21.0333 0.566667V13.6V14.1H21.5333H29.4667C29.5022 14.1 29.5333 14.1311 29.5333 14.1667V32.8667ZM6.8 0.633333H6.3V1.13333V32.8667V33.3667H6.8H8.5H9V32.8667V27.7667C9 27.1007 9.53406 26.5667 10.2 26.5667H11.3333C11.9993 26.5667 12.5333 27.1007 12.5333 27.7667V32.8667V33.3667H13.0333H14.1667H14.6667V32.8667V14.1667C14.6667 14.1311 14.6978 14.1 14.7333 14.1H20.4H20.9V13.6V1.13333V0.633333H20.4H6.8ZM9.13333 32.8667V33.3667H9.63333H11.9H12.4V32.8667V27.7667C12.4 27.1789 11.9211 26.7 11.3333 26.7H10.2C9.61219 26.7 9.13333 27.1789 9.13333 27.7667V32.8667ZM14.8 32.8667V33.3667H15.3H28.9H29.4V32.8667V14.7333V14.2333H28.9H15.3H14.8V14.7333V32.8667Z" fill="#0F1228" stroke="#03CDAF"/>
<path d="M15.3001 8.56668H14.8001V9.06668V11.3333V11.8333H15.3001H17.5667H18.0667V11.3333V9.06668V8.56668H17.5667H15.3001ZM18.1334 11.9667H14.7334C14.6979 11.9667 14.6667 11.9355 14.6667 11.9V8.50002C14.6667 8.46449 14.6979 8.43335 14.7334 8.43335H18.1334C18.1689 8.43335 18.2001 8.46449 18.2001 8.50002V11.9C18.2001 11.9355 18.1689 11.9667 18.1334 11.9667Z" fill="#0F1228" stroke="#03CDAF"/>
<path d="M15.3001 2.9H14.8001V3.4V5.66666V6.16666H15.3001H17.5667H18.0667V5.66666V3.4V2.9H17.5667H15.3001ZM18.1334 6.3H14.7334C14.6979 6.3 14.6667 6.26885 14.6667 6.23333V2.83333C14.6667 2.7978 14.6979 2.76666 14.7334 2.76666H18.1334C18.1689 2.76666 18.2001 2.7978 18.2001 2.83333V6.23333C18.2001 6.26885 18.1689 6.3 18.1334 6.3Z" fill="#0F1228" stroke="#03CDAF"/>
<path d="M9.63333 8.56668H9.13333V9.06668V11.3333V11.8333H9.63333H11.9H12.4V11.3333V9.06668V8.56668H11.9H9.63333ZM12.4667 11.9667H9.06667C9.03114 11.9667 9 11.9355 9 11.9V8.50002C9 8.46449 9.03114 8.43335 9.06667 8.43335H12.4667C12.5022 8.43335 12.5333 8.46449 12.5333 8.50002V11.9C12.5333 11.9355 12.5022 11.9667 12.4667 11.9667Z" fill="#0F1228" stroke="#03CDAF"/>
<path d="M9.63333 2.9H9.13333V3.4V5.66666V6.16666H9.63333H11.9H12.4V5.66666V3.4V2.9H11.9H9.63333ZM12.4667 6.3H9.06667C9.03114 6.3 9 6.26885 9 6.23333V2.83333C9 2.7978 9.03114 2.76666 9.06667 2.76666H12.4667C12.5022 2.76666 12.5333 2.7978 12.5333 2.83333V6.23333C12.5333 6.26885 12.5022 6.3 12.4667 6.3Z" fill="#0F1228" stroke="#03CDAF"/>
<path d="M9.63333 14.2333H9.13333V14.7333V17V17.5H9.63333H11.9H12.4V17V14.7333V14.2333H11.9H9.63333ZM12.4667 17.6333H9.06667C9.03114 17.6333 9 17.6022 9 17.5667V14.1667C9 14.1311 9.03114 14.1 9.06667 14.1H12.4667C12.5022 14.1 12.5333 14.1311 12.5333 14.1667V17.5667C12.5333 17.6022 12.5022 17.6333 12.4667 17.6333Z" fill="#0F1228" stroke="#03CDAF"/>
<path d="M9.63333 19.9H9.13333V20.4V22.6667V23.1667H9.63333H11.9H12.4V22.6667V20.4V19.9H11.9H9.63333ZM12.4667 23.3H9.06667C9.03114 23.3 9 23.2689 9 23.2333V19.8333C9 19.7978 9.03114 19.7667 9.06667 19.7667H12.4667C12.5022 19.7667 12.5333 19.7978 12.5333 19.8333V23.2333C12.5333 23.2689 12.5022 23.3 12.4667 23.3Z" fill="#0F1228" stroke="#03CDAF"/>
<path d="M26.0666 25.4333H26.5666V24.9333V22.6667V22.1667H26.0666H23.8H23.3V22.6667V24.9333V25.4333H23.8H26.0666ZM23.2333 22.0333H26.6333C26.6688 22.0333 26.7 22.0645 26.7 22.1V25.5C26.7 25.5355 26.6688 25.5667 26.6333 25.5667H23.2333C23.1978 25.5667 23.1666 25.5355 23.1666 25.5V22.1C23.1666 22.0645 23.1978 22.0333 23.2333 22.0333Z" fill="#0F1228" stroke="#03CDAF"/>
<path d="M26.0666 19.7667H26.5666V19.2667V17V16.5H26.0666H23.8H23.3V17V19.2667V19.7667H23.8H26.0666ZM23.2333 16.3667H26.6333C26.6688 16.3667 26.7 16.3978 26.7 16.4333V19.8333C26.7 19.8689 26.6688 19.9 26.6333 19.9H23.2333C23.1978 19.9 23.1666 19.8689 23.1666 19.8333V16.4333C23.1666 16.3978 23.1978 16.3667 23.2333 16.3667Z" fill="#0F1228" stroke="#03CDAF"/>
<path d="M26.0666 31.1H26.5666V30.6V28.3333V27.8333H26.0666H23.8H23.3V28.3333V30.6V31.1H23.8H26.0666ZM23.2333 27.7H26.6333C26.6688 27.7 26.7 27.7312 26.7 27.7667V31.1667C26.7 31.2022 26.6688 31.2333 26.6333 31.2333H23.2333C23.1978 31.2333 23.1666 31.2022 23.1666 31.1667V27.7667C23.1666 27.7312 23.1978 27.7 23.2333 27.7Z" fill="#0F1228" stroke="#03CDAF"/>
<path d="M20.4 25.4333H20.9V24.9333V22.6667V22.1667H20.4H18.1333H17.6333V22.6667V24.9333V25.4333H18.1333H20.4ZM17.5667 22.0333H20.9667C21.0022 22.0333 21.0333 22.0645 21.0333 22.1V25.5C21.0333 25.5355 21.0022 25.5667 20.9667 25.5667H17.5667C17.5311 25.5667 17.5 25.5355 17.5 25.5V22.1C17.5 22.0645 17.5311 22.0333 17.5667 22.0333Z" fill="#0F1228" stroke="#03CDAF"/>
<path d="M20.4 19.7667H20.9V19.2667V17V16.5H20.4H18.1333H17.6333V17V19.2667V19.7667H18.1333H20.4ZM17.5667 16.3667H20.9667C21.0022 16.3667 21.0333 16.3978 21.0333 16.4333V19.8333C21.0333 19.8689 21.0022 19.9 20.9667 19.9H17.5667C17.5311 19.9 17.5 19.8689 17.5 19.8333V16.4333C17.5 16.3978 17.5311 16.3667 17.5667 16.3667Z" fill="#0F1228" stroke="#03CDAF"/>
<path d="M20.4 31.1H20.9V30.6V28.3333V27.8333H20.4H18.1333H17.6333V28.3333V30.6V31.1H18.1333H20.4ZM17.5667 27.7H20.9667C21.0022 27.7 21.0333 27.7312 21.0333 27.7667V31.1667C21.0333 31.2022 21.0022 31.2333 20.9667 31.2333H17.5667C17.5311 31.2333 17.5 31.2022 17.5 31.1667V27.7667C17.5 27.7312 17.5311 27.7 17.5667 27.7Z" fill="#0F1228" stroke="#03CDAF"/>
</svg>
