<svg width="34" height="34" viewBox="0 0 34 34" fill="none" xmlns="http://www.w3.org/2000/svg">
<path d="M33.4333 32.8667H30.0333V14.1667C30.0333 13.855 29.7783 13.6 29.4667 13.6H21.5333V0.566667C21.5333 0.255 21.2783 0 20.9667 0H6.23333C5.92167 0 5.66667 0.255 5.66667 0.566667V32.8667H0.566667C0.255 32.8667 0 33.1217 0 33.4333C0 33.745 0.255 34 0.566667 34H33.4333C33.745 34 34 33.745 34 33.4333C34 33.1217 33.745 32.8667 33.4333 32.8667ZM6.8 1.13333H20.4V13.6H14.7333C14.4217 13.6 14.1667 13.855 14.1667 14.1667V32.8667H13.0333V27.7667C13.0333 26.8246 12.2754 26.0667 11.3333 26.0667H10.2C9.25792 26.0667 8.5 26.8246 8.5 27.7667V32.8667H6.8V1.13333ZM9.63333 32.8667V27.7667C9.63333 27.455 9.88833 27.2 10.2 27.2H11.3333C11.645 27.2 11.9 27.455 11.9 27.7667V32.8667H9.63333ZM15.3 32.8667V14.7333H28.9V32.8667H15.3Z" fill="#0F1228"/>
<path d="M14.7334 12.4667H18.1334C18.4451 12.4667 18.7001 12.2117 18.7001 11.9V8.50002C18.7001 8.18835 18.4451 7.93335 18.1334 7.93335H14.7334C14.4217 7.93335 14.1667 8.18835 14.1667 8.50002V11.9C14.1667 12.2117 14.4217 12.4667 14.7334 12.4667ZM15.3001 9.06668H17.5667V11.3333H15.3001V9.06668Z" fill="#0F1228"/>
<path d="M14.7334 6.8H18.1334C18.4451 6.8 18.7001 6.545 18.7001 6.23333V2.83333C18.7001 2.52166 18.4451 2.26666 18.1334 2.26666H14.7334C14.4217 2.26666 14.1667 2.52166 14.1667 2.83333V6.23333C14.1667 6.545 14.4217 6.8 14.7334 6.8ZM15.3001 3.4H17.5667V5.66666H15.3001V3.4Z" fill="#0F1228"/>
<path d="M9.06667 12.4667H12.4667C12.7783 12.4667 13.0333 12.2117 13.0333 11.9V8.50002C13.0333 8.18835 12.7783 7.93335 12.4667 7.93335H9.06667C8.755 7.93335 8.5 8.18835 8.5 8.50002V11.9C8.5 12.2117 8.755 12.4667 9.06667 12.4667ZM9.63333 9.06668H11.9V11.3333H9.63333V9.06668Z" fill="#0F1228"/>
<path d="M9.06667 6.8H12.4667C12.7783 6.8 13.0333 6.545 13.0333 6.23333V2.83333C13.0333 2.52166 12.7783 2.26666 12.4667 2.26666H9.06667C8.755 2.26666 8.5 2.52166 8.5 2.83333V6.23333C8.5 6.545 8.755 6.8 9.06667 6.8ZM9.63333 3.4H11.9V5.66666H9.63333V3.4Z" fill="#0F1228"/>
<path d="M9.06667 18.1333H12.4667C12.7783 18.1333 13.0333 17.8783 13.0333 17.5667V14.1667C13.0333 13.855 12.7783 13.6 12.4667 13.6H9.06667C8.755 13.6 8.5 13.855 8.5 14.1667V17.5667C8.5 17.8783 8.755 18.1333 9.06667 18.1333ZM9.63333 14.7333H11.9V17H9.63333V14.7333Z" fill="#0F1228"/>
<path d="M9.06667 23.8H12.4667C12.7783 23.8 13.0333 23.545 13.0333 23.2333V19.8333C13.0333 19.5217 12.7783 19.2667 12.4667 19.2667H9.06667C8.755 19.2667 8.5 19.5217 8.5 19.8333V23.2333C8.5 23.545 8.755 23.8 9.06667 23.8ZM9.63333 20.4H11.9V22.6667H9.63333V20.4Z" fill="#0F1228"/>
<path d="M26.6333 21.5333H23.2333C22.9217 21.5333 22.6667 21.7883 22.6667 22.1V25.5C22.6667 25.8117 22.9217 26.0667 23.2333 26.0667H26.6333C26.945 26.0667 27.2 25.8117 27.2 25.5V22.1C27.2 21.7883 26.945 21.5333 26.6333 21.5333ZM26.0667 24.9333H23.8V22.6667H26.0667V24.9333Z" fill="#0F1228"/>
<path d="M26.6333 15.8667H23.2333C22.9217 15.8667 22.6667 16.1217 22.6667 16.4333V19.8333C22.6667 20.145 22.9217 20.4 23.2333 20.4H26.6333C26.945 20.4 27.2 20.145 27.2 19.8333V16.4333C27.2 16.1217 26.945 15.8667 26.6333 15.8667ZM26.0667 19.2667H23.8V17H26.0667V19.2667Z" fill="#0F1228"/>
<path d="M26.6333 27.2H23.2333C22.9217 27.2 22.6667 27.455 22.6667 27.7667V31.1667C22.6667 31.4783 22.9217 31.7333 23.2333 31.7333H26.6333C26.945 31.7333 27.2 31.4783 27.2 31.1667V27.7667C27.2 27.455 26.945 27.2 26.6333 27.2ZM26.0667 30.6H23.8V28.3333H26.0667V30.6Z" fill="#0F1228"/>
<path d="M20.9667 21.5333H17.5667C17.255 21.5333 17 21.7883 17 22.1V25.5C17 25.8117 17.255 26.0667 17.5667 26.0667H20.9667C21.2783 26.0667 21.5333 25.8117 21.5333 25.5V22.1C21.5333 21.7883 21.2783 21.5333 20.9667 21.5333ZM20.4 24.9333H18.1333V22.6667H20.4V24.9333Z" fill="#0F1228"/>
<path d="M20.9667 15.8667H17.5667C17.255 15.8667 17 16.1217 17 16.4333V19.8333C17 20.145 17.255 20.4 17.5667 20.4H20.9667C21.2783 20.4 21.5333 20.145 21.5333 19.8333V16.4333C21.5333 16.1217 21.2783 15.8667 20.9667 15.8667ZM20.4 19.2667H18.1333V17H20.4V19.2667Z" fill="#0F1228"/>
<path d="M20.9667 27.2H17.5667C17.255 27.2 17 27.455 17 27.7667V31.1667C17 31.4783 17.255 31.7333 17.5667 31.7333H20.9667C21.2783 31.7333 21.5333 31.4783 21.5333 31.1667V27.7667C21.5333 27.455 21.2783 27.2 20.9667 27.2ZM20.4 30.6H18.1333V28.3333H20.4V30.6Z" fill="#0F1228"/>
</svg>
