<svg width="42" height="32" viewBox="0 0 42 32" fill="none" xmlns="http://www.w3.org/2000/svg">
<path d="M40.5164 21.4097H38.4605V5.96014C38.4605 5.62903 38.1874 5.35444 37.8582 5.35444H35.1999C34.8706 5.35444 34.5976 5.62903 34.5976 5.96014V6.69507H27.7873C27.4821 2.94777 24.358 0 20.5594 0C16.7607 0 13.6367 2.94777 13.3315 6.68699H8.48074H6.52921V5.95207C6.52921 5.62095 6.25616 5.34636 5.92688 5.34636H3.26059C2.93132 5.34636 2.65826 5.62095 2.65826 5.95207V21.4016H0.602326C0.273054 21.4016 0 21.6762 0 22.0073V31.3756C0 31.7067 0.273054 31.9813 0.602326 31.9813H3.26059C3.58986 31.9813 3.86291 31.7067 3.86291 31.3756V29.9703H37.2478V31.3756C37.2478 31.7067 37.5209 31.9813 37.8501 31.9813H40.5084C40.8377 31.9813 41.1107 31.7067 41.1107 31.3756V22.0073C41.1188 21.6762 40.8457 21.4097 40.5164 21.4097ZM2.65826 29.3727V30.7698H1.20465V22.613H2.65826V29.3727ZM35.7942 6.56585H37.2478V21.4097H35.7942V6.56585ZM6.52921 7.8984H7.99085H13.9097C14.239 7.8984 14.512 7.62382 14.512 7.2927C14.512 3.94113 17.2265 1.21141 20.5594 1.21141C23.8923 1.21141 26.6067 3.94113 26.6067 7.2927C26.6067 7.62382 26.8798 7.8984 27.2091 7.8984H34.5896V16.7902C34.0274 16.3298 33.3126 16.0552 32.5336 16.0552H31.8028V13.3174V11.3065C31.8028 10.9754 31.5297 10.7008 31.2005 10.7008H21.8845C21.5552 10.7008 21.2822 10.9754 21.2822 11.3065V16.0552H19.8286V13.3174V11.3065C19.8286 10.9754 19.5555 10.7008 19.2262 10.7008H9.91026C9.58099 10.7008 9.30794 10.9754 9.30794 11.3065V16.0552H8.57712C7.79811 16.0552 7.08335 16.3298 6.52118 16.7902V7.8984H6.52921ZM11.2434 12.7117H10.5206V11.9122H18.6319V12.7117H17.9011C17.5718 12.7117 17.2988 12.9863 17.2988 13.3174C17.2988 13.6486 17.5718 13.9232 17.9011 13.9232H18.6319V16.0552H10.5206V13.9232H11.2514C11.5807 13.9232 11.8538 13.6486 11.8538 13.3174C11.8457 12.9783 11.5807 12.7117 11.2434 12.7117ZM32.5336 17.2667C33.666 17.2667 34.5896 18.1954 34.5896 19.3341V21.4016H6.52921V19.3341C6.52921 18.1954 7.45278 17.2667 8.58515 17.2667H32.5336ZM23.2176 12.7117H22.4868V11.9122H30.5981V12.7117H29.8754C29.5461 12.7117 29.273 12.9863 29.273 13.3174C29.273 13.6486 29.5461 13.9232 29.8754 13.9232H30.6062V16.0552H22.4949V13.9232H23.2257C23.5549 13.9232 23.828 13.6486 23.828 13.3174C23.82 12.9783 23.5549 12.7117 23.2176 12.7117ZM3.86291 6.56585H5.31653V21.4097H3.86291V6.56585ZM37.2558 28.767H3.86291V22.6211H37.2478V28.767H37.2558ZM39.9141 30.7698H38.4605V22.613H39.9141V30.7698Z" fill="black"/>
<path d="M5.26032 27.9674H9.9183C10.2476 27.9674 10.5206 27.6929 10.5206 27.3617V24.0182C10.5206 23.6871 10.2476 23.4125 9.9183 23.4125H5.26032C4.93104 23.4125 4.65799 23.6871 4.65799 24.0182V27.3617C4.65799 27.7009 4.92301 27.9674 5.26032 27.9674ZM5.86264 24.6239H9.31597V26.756H5.86264V24.6239Z" fill="black"/>
<path d="M11.91 27.9674H29.2088C29.5381 27.9674 29.8111 27.6929 29.8111 27.3617V24.0182C29.8111 23.6871 29.5381 23.4125 29.2088 23.4125H11.91C11.5807 23.4125 11.3077 23.6871 11.3077 24.0182V27.3617C11.3077 27.7009 11.5807 27.9674 11.91 27.9674ZM12.5123 24.6239H28.6065V26.756H12.5123V24.6239Z" fill="black"/>
<path d="M31.2005 27.9674H35.8585C36.1877 27.9674 36.4608 27.6929 36.4608 27.3617V24.0182C36.4608 23.6871 36.1877 23.4125 35.8585 23.4125H31.2005C30.8712 23.4125 30.5981 23.6871 30.5981 24.0182V27.3617C30.5981 27.7009 30.8712 27.9674 31.2005 27.9674ZM31.8028 24.6239H35.2561V26.756H31.8028V24.6239Z" fill="black"/>
<path d="M20.5594 9.23902C21.6275 9.23902 22.4948 8.36681 22.4948 7.29269C22.4948 6.21857 21.6275 5.35443 20.5594 5.35443C19.4913 5.35443 18.6239 6.22665 18.6239 7.30077C18.6239 8.37488 19.4913 9.23902 20.5594 9.23902ZM20.5594 6.56584C20.9609 6.56584 21.2902 6.89696 21.2902 7.30077C21.2902 7.70457 20.9609 8.03569 20.5594 8.03569C20.1578 8.03569 19.8286 7.70457 19.8286 7.30077C19.8286 6.89696 20.1578 6.56584 20.5594 6.56584Z" fill="black"/>
</svg>
