<svg width="29" height="26" viewBox="0 0 29 26" fill="none" xmlns="http://www.w3.org/2000/svg">
<path fill-rule="evenodd" clip-rule="evenodd" d="M25.5454 3.51417H27.3864C27.7545 3.51417 28 3.76559 28 4.14271C28 4.51984 27.7545 4.77126 27.2636 4.77126H25.4227C25.1773 6.15405 23.95 7.28543 22.4773 7.28543C21.0045 7.28543 19.7773 6.15405 19.5318 4.77126H1.61364C1.24545 4.77126 1 4.51984 1 4.14271C1 3.76559 1.24545 3.51417 1.61364 3.51417H19.6545C19.9 2.13138 21.1273 1 22.6 1C24.0727 1 25.3 2.13138 25.5454 3.51417ZM20.6363 4.14271C20.6363 5.14838 21.4954 6.02834 22.4772 6.02834C23.459 6.02834 24.3181 5.14838 24.3181 4.14271C24.3181 3.13704 23.459 2.25708 22.4772 2.25708C21.4954 2.25708 20.6363 3.13704 20.6363 4.14271ZM1.61364 13.5709H3.45454C3.7 14.9536 4.92727 16.085 6.4 16.085C7.87273 16.085 9.1 14.9536 9.34545 13.5709H27.2636C27.6318 13.5709 27.8773 13.3194 27.8773 12.9423C27.8773 12.5652 27.7545 12.3138 27.3864 12.3138H9.46818C9.22272 10.931 7.99545 9.7996 6.52273 9.7996C5.05 9.7996 3.82273 10.931 3.45454 12.3138H1.61364C1.24545 12.3138 1 12.5652 1 12.9423C1 13.3194 1.24545 13.5709 1.61364 13.5709ZM8.36362 12.9423C8.36362 11.9367 7.50453 11.0567 6.52271 11.0567C5.54089 11.0567 4.6818 11.9367 4.6818 12.9423C4.6818 13.948 5.54089 14.8279 6.52271 14.8279C7.50453 14.8279 8.36362 13.948 8.36362 12.9423ZM27.3864 21.1133H25.5454C25.3 19.7306 24.0727 18.5992 22.6 18.5992C21.1273 18.5992 19.9 19.7306 19.6545 21.1133H1.61364C1.24545 21.1133 1 21.3648 1 21.7419C1 22.119 1.24545 22.3704 1.61364 22.3704H19.5318C19.7773 23.7532 21.0045 24.8846 22.4773 24.8846C23.95 24.8846 25.1773 23.7532 25.4227 22.3704H27.2636C27.6318 22.3704 27.8773 22.119 27.8773 21.7419C27.8773 21.3648 27.7545 21.1133 27.3864 21.1133ZM20.6363 21.7419C20.6363 22.7476 21.4954 23.6275 22.4772 23.6275C23.459 23.6275 24.3181 22.7476 24.3181 21.7419C24.3181 20.7362 23.459 19.8563 22.4772 19.8563C21.4954 19.8563 20.6363 20.7362 20.6363 21.7419Z" fill="#484848"/>
<path d="M25.5454 3.51417L25.2993 3.55786L25.3359 3.76417H25.5454V3.51417ZM25.4227 4.77126V4.52126H25.2132L25.1766 4.72756L25.4227 4.77126ZM19.5318 4.77126L19.778 4.72756L19.7413 4.52126H19.5318V4.77126ZM19.6545 3.51417V3.76417H19.8641L19.9007 3.55786L19.6545 3.51417ZM3.45454 13.5709L3.7007 13.5272L3.66408 13.3209H3.45454V13.5709ZM9.34545 13.5709V13.3209H9.13592L9.0993 13.5272L9.34545 13.5709ZM9.46818 12.3138L9.22203 12.3575L9.25865 12.5638H9.46818V12.3138ZM3.45454 12.3138V12.5638H3.64669L3.69613 12.3781L3.45454 12.3138ZM25.5454 21.1133L25.2993 21.157L25.3359 21.3633H25.5454V21.1133ZM19.6545 21.1133V21.3633H19.8641L19.9007 21.157L19.6545 21.1133ZM19.5318 22.3704L19.778 22.3267L19.7413 22.1204H19.5318V22.3704ZM25.4227 22.3704V22.1204H25.2132L25.1766 22.3267L25.4227 22.3704ZM27.3864 3.26417H25.5454V3.76417H27.3864V3.26417ZM28.25 4.14271C28.25 3.89911 28.1698 3.67591 28.0101 3.51238C27.8499 3.3483 27.6291 3.26417 27.3864 3.26417V3.76417C27.5118 3.76417 27.5978 3.80575 27.6524 3.86166C27.7075 3.91812 27.75 4.00919 27.75 4.14271H28.25ZM27.2636 5.02126C27.5494 5.02126 27.8005 4.94794 27.9828 4.78458C28.1685 4.61806 28.25 4.38745 28.25 4.14271H27.75C27.75 4.2751 27.7087 4.35876 27.649 4.41224C27.5859 4.46886 27.4688 4.52126 27.2636 4.52126V5.02126ZM25.4227 5.02126H27.2636V4.52126H25.4227V5.02126ZM22.4773 7.53543C24.08 7.53543 25.4038 6.3082 25.6689 4.81495L25.1766 4.72756C24.9507 5.9999 23.82 7.03543 22.4773 7.03543V7.53543ZM19.2857 4.81495C19.5507 6.3082 20.8745 7.53543 22.4773 7.53543V7.03543C21.1346 7.03543 20.0038 5.9999 19.778 4.72756L19.2857 4.81495ZM1.61364 5.02126H19.5318V4.52126H1.61364V5.02126ZM0.75 4.14271C0.75 4.38631 0.830207 4.60951 0.989865 4.77305C1.15005 4.93712 1.3709 5.02126 1.61364 5.02126V4.52126C1.48819 4.52126 1.40223 4.47968 1.34764 4.42376C1.29252 4.36731 1.25 4.27624 1.25 4.14271H0.75ZM1.61364 3.26417C1.3709 3.26417 1.15005 3.3483 0.989865 3.51238C0.830207 3.67591 0.75 3.89911 0.75 4.14271H1.25C1.25 4.00919 1.29252 3.91812 1.34764 3.86166C1.40223 3.80575 1.48819 3.76417 1.61364 3.76417V3.26417ZM19.6545 3.26417H1.61364V3.76417H19.6545V3.26417ZM22.6 0.75C20.9972 0.75 19.6734 1.97722 19.4084 3.47048L19.9007 3.55786C20.1265 2.28553 21.2573 1.25 22.6 1.25V0.75ZM25.7916 3.47048C25.5265 1.97722 24.2027 0.75 22.6 0.75V1.25C23.9427 1.25 25.0734 2.28553 25.2993 3.55786L25.7916 3.47048ZM22.4772 5.77834C21.6391 5.77834 20.8863 5.016 20.8863 4.14271H20.3863C20.3863 5.28076 21.3517 6.27834 22.4772 6.27834V5.77834ZM24.0681 4.14271C24.0681 5.016 23.3153 5.77834 22.4772 5.77834V6.27834C23.6027 6.27834 24.5681 5.28076 24.5681 4.14271H24.0681ZM22.4772 2.50708C23.3153 2.50708 24.0681 3.26942 24.0681 4.14271H24.5681C24.5681 3.00466 23.6027 2.00708 22.4772 2.00708V2.50708ZM20.8863 4.14271C20.8863 3.26942 21.6391 2.50708 22.4772 2.50708V2.00708C21.3517 2.00708 20.3863 3.00466 20.3863 4.14271H20.8863ZM3.45454 13.3209H1.61364V13.8209H3.45454V13.3209ZM6.4 15.835C5.0573 15.835 3.92654 14.7995 3.7007 13.5272L3.20839 13.6145C3.47345 15.1078 4.79724 16.335 6.4 16.335V15.835ZM9.0993 13.5272C8.87345 14.7995 7.7427 15.835 6.4 15.835V16.335C8.00275 16.335 9.32654 15.1078 9.5916 13.6145L9.0993 13.5272ZM27.2636 13.3209H9.34545V13.8209H27.2636V13.3209ZM27.6273 12.9423C27.6273 13.0758 27.5847 13.1669 27.5296 13.2234C27.475 13.2793 27.3891 13.3209 27.2636 13.3209V13.8209C27.5064 13.8209 27.7272 13.7367 27.8874 13.5726C28.0471 13.4091 28.1273 13.1859 28.1273 12.9423H27.6273ZM27.3864 12.5638C27.5064 12.5638 27.5442 12.6 27.5648 12.6296C27.5979 12.6771 27.6273 12.7721 27.6273 12.9423H28.1273C28.1273 12.7353 28.0953 12.5162 27.9749 12.3436C27.8422 12.1532 27.6345 12.0638 27.3864 12.0638V12.5638ZM9.46818 12.5638H27.3864V12.0638H9.46818V12.5638ZM6.52273 10.0496C7.86543 10.0496 8.99618 11.0851 9.22203 12.3575L9.71433 12.2701C9.44927 10.7768 8.12548 9.5496 6.52273 9.5496V10.0496ZM3.69613 12.3781C4.04056 11.0845 5.18302 10.0496 6.52273 10.0496V9.5496C4.91698 9.5496 3.60489 10.7775 3.21296 12.2494L3.69613 12.3781ZM1.61364 12.5638H3.45454V12.0638H1.61364V12.5638ZM1.25 12.9423C1.25 12.8088 1.29252 12.7177 1.34763 12.6613C1.40223 12.6053 1.48819 12.5638 1.61364 12.5638V12.0638C1.3709 12.0638 1.15005 12.1479 0.989865 12.312C0.830207 12.4755 0.75 12.6987 0.75 12.9423H1.25ZM1.61364 13.3209C1.48819 13.3209 1.40223 13.2793 1.34764 13.2234C1.29252 13.1669 1.25 13.0758 1.25 12.9423H0.75C0.75 13.1859 0.830207 13.4091 0.989865 13.5726C1.15005 13.7367 1.3709 13.8209 1.61364 13.8209V13.3209ZM6.52271 11.3067C7.36084 11.3067 8.11362 12.069 8.11362 12.9423H8.61362C8.61362 11.8043 7.64822 10.8067 6.52271 10.8067V11.3067ZM4.9318 12.9423C4.9318 12.069 5.68459 11.3067 6.52271 11.3067V10.8067C5.3972 10.8067 4.4318 11.8043 4.4318 12.9423H4.9318ZM6.52271 14.5779C5.68459 14.5779 4.9318 13.8156 4.9318 12.9423H4.4318C4.4318 14.0804 5.3972 15.0779 6.52271 15.0779V14.5779ZM8.11362 12.9423C8.11362 13.8156 7.36084 14.5779 6.52271 14.5779V15.0779C7.64822 15.0779 8.61362 14.0804 8.61362 12.9423H8.11362ZM25.5454 21.3633H27.3864V20.8633H25.5454V21.3633ZM22.6 18.8492C23.9427 18.8492 25.0734 19.8847 25.2993 21.157L25.7916 21.0697C25.5265 19.5764 24.2027 18.3492 22.6 18.3492V18.8492ZM19.9007 21.157C20.1265 19.8847 21.2573 18.8492 22.6 18.8492V18.3492C20.9972 18.3492 19.6734 19.5764 19.4084 21.0697L19.9007 21.157ZM1.61364 21.3633H19.6545V20.8633H1.61364V21.3633ZM1.25 21.7419C1.25 21.6084 1.29252 21.5173 1.34764 21.4608C1.40223 21.4049 1.48819 21.3633 1.61364 21.3633V20.8633C1.3709 20.8633 1.15005 20.9475 0.989865 21.1116C0.830207 21.2751 0.75 21.4983 0.75 21.7419H1.25ZM1.61364 22.1204C1.48819 22.1204 1.40223 22.0789 1.34764 22.0229C1.29252 21.9665 1.25 21.8754 1.25 21.7419H0.75C0.75 21.9855 0.830207 22.2087 0.989865 22.3722C1.15005 22.5363 1.3709 22.6204 1.61364 22.6204V22.1204ZM19.5318 22.1204H1.61364V22.6204H19.5318V22.1204ZM22.4773 24.6346C21.1346 24.6346 20.0038 23.5991 19.778 22.3267L19.2857 22.4141C19.5507 23.9074 20.8745 25.1346 22.4773 25.1346V24.6346ZM25.1766 22.3267C24.9507 23.5991 23.82 24.6346 22.4773 24.6346V25.1346C24.08 25.1346 25.4038 23.9074 25.6689 22.4141L25.1766 22.3267ZM27.2636 22.1204H25.4227V22.6204H27.2636V22.1204ZM27.6273 21.7419C27.6273 21.8754 27.5847 21.9665 27.5296 22.0229C27.475 22.0789 27.3891 22.1204 27.2636 22.1204V22.6204C27.5064 22.6204 27.7272 22.5363 27.8874 22.3722C28.0471 22.2087 28.1273 21.9855 28.1273 21.7419H27.6273ZM27.3864 21.3633C27.5064 21.3633 27.5442 21.3996 27.5648 21.4292C27.5979 21.4766 27.6273 21.5717 27.6273 21.7419H28.1273C28.1273 21.5349 28.0953 21.3157 27.9749 21.1432C27.8422 20.9528 27.6345 20.8633 27.3864 20.8633V21.3633ZM22.4772 23.3775C21.6391 23.3775 20.8863 22.6152 20.8863 21.7419H20.3863C20.3863 22.88 21.3517 23.8775 22.4772 23.8775V23.3775ZM24.0681 21.7419C24.0681 22.6152 23.3153 23.3775 22.4772 23.3775V23.8775C23.6027 23.8775 24.5681 22.88 24.5681 21.7419H24.0681ZM22.4772 20.1063C23.3153 20.1063 24.0681 20.8686 24.0681 21.7419H24.5681C24.5681 20.6039 23.6027 19.6063 22.4772 19.6063V20.1063ZM20.8863 21.7419C20.8863 20.8686 21.6391 20.1063 22.4772 20.1063V19.6063C21.3517 19.6063 20.3863 20.6039 20.3863 21.7419H20.8863Z" fill="black"/>
</svg>
