<svg width="40" height="35" viewBox="0 0 40 35" fill="none" xmlns="http://www.w3.org/2000/svg">
<path fill-rule="evenodd" clip-rule="evenodd" d="M35.8893 3.67611H38.581C39.1194 3.67611 39.4782 4.04373 39.4782 4.59514C39.4782 5.14656 39.1194 5.51417 38.4016 5.51417H35.7099C35.351 7.53603 33.5565 9.19028 31.4032 9.19028C29.2498 9.19028 27.4553 7.53603 27.0964 5.51417H0.897233C0.358893 5.51417 0 5.14656 0 4.59514C0 4.04373 0.358893 3.67611 0.897233 3.67611H27.2759C27.6348 1.65425 29.4292 0 31.5826 0C33.736 0 35.5304 1.65425 35.8893 3.67611ZM28.7114 4.59509C28.7114 6.06553 29.9675 7.35217 31.4031 7.35217C32.8386 7.35217 34.0948 6.06553 34.0948 4.59509C34.0948 3.12464 32.8386 1.838 31.4031 1.838C29.9675 1.838 28.7114 3.12464 28.7114 4.59509ZM0.897239 18.3806H3.58894C3.94783 20.4024 5.7423 22.0567 7.89566 22.0567C10.049 22.0567 11.8435 20.4024 12.2024 18.3806H38.4016C38.9399 18.3806 39.2988 18.013 39.2988 17.4615C39.2988 16.9101 39.1194 16.5425 38.581 16.5425H12.3818C12.0229 14.5207 10.2285 12.8664 8.0751 12.8664C5.92174 12.8664 4.12728 14.5207 3.58894 16.5425H0.897239C0.358899 16.5425 6.28747e-06 16.9101 6.28747e-06 17.4615C6.28747e-06 18.013 0.358899 18.3806 0.897239 18.3806ZM10.7667 17.4616C10.7667 15.9912 9.51057 14.7045 8.07499 14.7045C6.63942 14.7045 5.3833 15.9912 5.3833 17.4616C5.3833 18.932 6.63942 20.2187 8.07499 20.2187C9.51057 20.2187 10.7667 18.932 10.7667 17.4616ZM38.581 29.4089H35.8893C35.5304 27.387 33.736 25.7327 31.5826 25.7327C29.4292 25.7327 27.6348 27.387 27.2759 29.4089H0.897239C0.358899 29.4089 6.28747e-06 29.7765 6.28747e-06 30.3279C6.28747e-06 30.8793 0.358899 31.2469 0.897239 31.2469H27.0964C27.4553 33.2688 29.2498 34.923 31.4032 34.923C33.5565 34.923 35.351 33.2688 35.7099 31.2469H38.4016C38.9399 31.2469 39.2988 30.8793 39.2988 30.3279C39.2988 29.7765 39.1194 29.4089 38.581 29.4089ZM28.7114 30.3279C28.7114 31.7984 29.9675 33.085 31.4031 33.085C32.8386 33.085 34.0948 31.7984 34.0948 30.3279C34.0948 28.8575 32.8386 27.5709 31.4031 27.5709C29.9675 27.5709 28.7114 28.8575 28.7114 30.3279Z" fill="#1D1D1D"/>
</svg>
