<svg width="37" height="31" viewBox="0 0 37 31" fill="none" xmlns="http://www.w3.org/2000/svg">
<path d="M29.0632 23.3751H28.4524V17.5611C28.4524 17.2275 28.177 16.9535 27.8417 16.9535H20.537C20.2017 16.9535 19.9263 17.2275 19.9263 17.5611V23.3751H19.3156C18.9803 23.3751 18.7048 23.6491 18.7048 23.9827C18.7048 24.3163 18.9803 24.5903 19.3156 24.5903H29.0512C29.3865 24.5903 29.6619 24.3163 29.6619 23.9827C29.6619 23.6491 29.3985 23.3751 29.0632 23.3751ZM27.231 23.3751H21.1477V18.1687H27.231V23.3751Z" fill="#0F1228"/>
<path d="M35.6734 29.7848H32.0929V14.0822C33.0509 13.5223 33.6736 12.5453 33.6736 11.4969V10.2936C33.6736 9.94812 33.5897 10.0911 29.6619 2.87125V1.81091C29.6619 0.810146 28.8476 0 27.8418 0H8.37049C7.36459 0 6.5503 0.810146 6.5503 1.81091V2.87125C2.57461 10.1626 2.52671 9.94812 2.52671 10.2936V11.5088C2.52671 12.5573 3.13744 13.5342 4.10741 14.0942V29.7848H0.610722C0.275424 29.7848 0 30.0588 0 30.3924C0 30.726 0.275424 31 0.610722 31H4.71813H5.47255H30.8115H31.4941H35.6734C36.0087 31 36.2841 30.726 36.2841 30.3924C36.2841 30.0588 36.0206 29.7848 35.6734 29.7848ZM32.4641 11.5088C32.4641 12.2118 31.9611 12.8789 31.2067 13.1768C30.9552 13.2721 30.7038 13.3198 30.4523 13.3198C29.3985 13.3198 28.4405 12.45 28.4405 11.5088V10.9012H32.4521V11.5088H32.4641ZM32.045 9.68601H28.2848L26.2611 3.63374H28.7039L32.045 9.68601ZM23.5787 10.9012H27.231V11.5088C27.231 12.5096 26.4167 13.3198 25.4108 13.3198C24.4049 13.3198 23.5906 12.5096 23.5906 11.5088V10.9012H23.5787ZM23.4948 9.68601L22.477 3.63374H24.9678L26.9915 9.68601H23.4948ZM7.75977 1.81091C7.75977 1.47733 8.03519 1.20331 8.37049 1.20331H27.8418C28.1771 1.20331 28.4525 1.47733 28.4525 1.81091V2.41852C27.8777 2.41852 8.34654 2.41852 7.75977 2.41852V1.81091ZM22.3692 10.9012V11.5088C22.3692 12.5096 21.5549 13.3198 20.549 13.3198C19.5431 13.3198 18.7288 12.5096 18.7288 11.5088V10.9012H22.3692ZM18.7168 9.68601V3.63374H21.2436L22.2614 9.68601H18.7168ZM13.9628 9.68601L14.9807 3.63374H17.5074V9.68601H13.9628ZM17.4954 10.9012V11.5088C17.4954 12.5096 16.6811 13.3198 15.6752 13.3198C14.6693 13.3198 13.855 12.5096 13.855 11.5088V10.9012H17.4954ZM9.20874 9.68601L11.2325 3.63374H13.7233L12.7054 9.68601H9.20874ZM12.6336 10.9012V11.5088C12.6336 12.5096 11.8193 13.3198 10.8134 13.3198C9.80748 13.3198 8.99319 12.5096 8.99319 11.5088V10.9012H12.6336ZM7.50829 3.63374H9.95118L7.92742 9.68601H4.16728L7.50829 3.63374ZM3.74816 11.5088V10.9012H7.75977V11.5088C7.75977 12.462 6.80177 13.3198 5.74797 13.3198C5.48453 13.3198 5.2091 13.2602 4.95763 13.153C4.22716 12.8432 3.74816 12.1879 3.74816 11.5088ZM15.0645 29.7848H8.98121V24.5784H15.0645V29.7848ZM15.0645 23.3751H8.98121V18.1687H15.0645V23.3751ZM30.8115 29.7848H16.2859V17.5611C16.2859 17.2275 16.0105 16.9535 15.6752 16.9535H8.37049C8.03519 16.9535 7.75977 17.2275 7.75977 17.5611V29.7848H5.47255H5.32885V14.4992C5.47255 14.5231 5.61625 14.5231 5.75995 14.5231C6.56227 14.5231 7.36459 14.2133 7.97532 13.6533C8.10704 13.5342 8.22679 13.4032 8.34654 13.2602C8.89739 14.0227 9.79551 14.5111 10.8134 14.5111C11.8073 14.5111 12.6934 14.0346 13.2443 13.2959C13.7951 14.0346 14.6813 14.5111 15.6752 14.5111C16.6691 14.5111 17.5553 14.0346 18.1061 13.2959C18.657 14.0346 19.5431 14.5111 20.537 14.5111C21.531 14.5111 22.4171 14.0346 22.968 13.2959C23.5188 14.0346 24.4049 14.5111 25.3989 14.5111C26.4167 14.5111 27.3149 14.0108 27.8657 13.2602C27.9735 13.3912 28.0932 13.5223 28.2369 13.6533C28.8477 14.2014 29.6619 14.5231 30.4523 14.5231C30.596 14.5231 30.7397 14.5111 30.8834 14.4992V29.7848H30.8115Z" fill="#0F1228"/>
</svg>
