<svg width="17" height="17" viewBox="0 0 17 17" fill="none" xmlns="http://www.w3.org/2000/svg">
<path d="M16.6794 15.6886L12.6216 11.6265C13.6296 10.3988 14.2326 8.82648 14.2326 7.11632C14.2326 3.1877 11.0449 0 7.11632 0C3.18339 0 0 3.1877 0 7.11632C0 11.0449 3.18339 14.2326 7.11632 14.2326C8.83078 14.2326 10.3988 13.6296 11.6222 12.6216L15.68 16.6794C15.9557 16.9551 16.3994 16.9551 16.6751 16.6794C16.9551 16.408 16.9551 15.96 16.6794 15.6886ZM7.11632 12.8154C3.9717 12.8154 1.41293 10.2566 1.41293 7.11632C1.41293 3.97601 3.9717 1.41293 7.11632 1.41293C10.2609 1.41293 12.8197 3.9717 12.8197 7.11632C12.8197 10.2609 10.2609 12.8154 7.11632 12.8154Z" fill="#00CBB0"/>
</svg>
