<svg width="37" height="36" viewBox="0 0 37 36" fill="none" xmlns="http://www.w3.org/2000/svg">
<g style="mix-blend-mode:multiply">
<ellipse cx="18.92" cy="18" rx="18.06" ry="18" fill="#545454"/>
</g>
<path d="M28.5208 16.7482C28.9637 16.3107 29.1113 15.7275 28.9145 15.1443C28.7177 14.5611 28.2256 14.1723 27.6352 14.0751L22.8625 13.3947C22.7149 13.3947 22.6164 13.2975 22.518 13.1517L20.4023 8.87482C20.1563 8.34021 19.615 8 19.0246 8C18.4342 8 17.8437 8.34021 17.5977 8.87482L15.482 13.1517C15.4328 13.2975 15.2851 13.3461 15.1375 13.3947L10.3648 14.0751C9.77438 14.1723 9.28235 14.5611 9.08553 15.1443C8.88872 15.7275 9.03633 16.3107 9.47916 16.7482L12.9234 20.053C13.0218 20.1502 13.071 20.296 13.071 20.4418L12.2345 25.1075C12.1361 25.6907 12.3822 26.2739 12.8742 26.6627C13.1202 26.8571 13.4646 26.9543 13.8091 26.9543C14.0551 26.9543 14.3011 26.9057 14.5471 26.7599L18.8278 24.5729C18.9754 24.5243 19.123 24.5243 19.2214 24.5729L23.4529 26.8085C23.9941 27.1001 24.6338 27.0515 25.1258 26.7113C25.6178 26.3711 25.8639 25.7879 25.7655 25.1561L24.929 20.4904C24.929 20.3446 24.929 20.1988 25.0766 20.1016L28.5208 16.7482Z" fill="#00CBB0"/>
</svg>
