<svg width="37" height="36" viewBox="0 0 37 36" fill="none" xmlns="http://www.w3.org/2000/svg">
<g style="mix-blend-mode:multiply">
<ellipse cx="18.92" cy="18" rx="18.06" ry="18" fill="#545454"/>
</g>
<path d="M28.5208 16.7482C28.9637 16.3107 29.1113 15.7275 28.9145 15.1443C28.7177 14.5611 28.2256 14.1723 27.6352 14.0751L22.8625 13.3947C22.7149 13.3947 22.6164 13.2975 22.518 13.1517L20.4023 8.87482C20.1563 8.34021 19.615 8 19.0246 8C18.4342 8 17.8437 8.34021 17.5977 8.87482L15.482 13.1517C15.4328 13.2975 15.2851 13.3461 15.1375 13.3947L10.3648 14.0751C9.77438 14.1723 9.28235 14.5611 9.08553 15.1443C8.88872 15.7275 9.03633 16.3107 9.47916 16.7482L12.9234 20.053C13.0218 20.1502 13.071 20.296 13.071 20.4418L12.2345 25.1075C12.1361 25.6907 12.3822 26.2739 12.8742 26.6627C13.1202 26.8571 13.4646 26.9543 13.8091 26.9543C14.0551 26.9543 14.3011 26.9057 14.5471 26.7599L18.8278 24.5729C18.9754 24.5243 19.123 24.5243 19.2214 24.5729L23.4529 26.8085C23.9941 27.1001 24.6338 27.0515 25.1258 26.7113C25.6178 26.3711 25.8639 25.7879 25.7655 25.1561L24.929 20.4904C24.929 20.3446 24.929 20.1988 25.0766 20.1016L28.5208 16.7482ZM13.563 25.7393C13.4154 25.6421 13.317 25.4963 13.3662 25.3019L14.2027 20.6362C14.3011 20.1016 14.1043 19.6156 13.7598 19.2268L10.3156 15.9219C10.2172 15.8247 10.168 15.6303 10.2172 15.4845C10.2664 15.3387 10.414 15.1929 10.5616 15.1929L15.3344 14.5125C15.8756 14.4639 16.3184 14.1237 16.5152 13.6377L18.631 9.36082C18.7786 9.06922 19.2706 9.06922 19.4182 9.36082L21.534 13.6377C21.78 14.1237 22.2228 14.4153 22.7148 14.5125L27.4876 15.1929C27.6352 15.1929 27.7828 15.3387 27.832 15.4845C27.8812 15.6303 27.832 15.8247 27.7336 15.9219L24.2894 19.2268C23.8957 19.6156 23.7481 20.1502 23.7973 20.6362L24.6338 25.3019C24.683 25.4477 24.5846 25.6421 24.437 25.7393C24.2894 25.8365 24.1417 25.8365 23.9941 25.7879L19.7627 23.5523C19.5166 23.4551 19.2706 23.3579 19.0246 23.3579C18.7786 23.3579 18.5326 23.4065 18.2866 23.5523L14.0059 25.7393C13.8583 25.8365 13.6614 25.8365 13.563 25.7393Z" fill="#0BCDB1"/>
</svg>
