<svg width="24" height="21" viewBox="0 0 24 21" fill="none" xmlns="http://www.w3.org/2000/svg">
<path d="M1.50857 3.56571H22.4229C23.3143 3.56571 24 2.74286 24 1.78286C24 0.822857 23.3143 0 22.4914 0H1.50857C0.685714 0 0 0.822857 0 1.78286C0 2.74286 0.685714 3.56571 1.50857 3.56571Z" fill="#0F1228"/>
<path d="M22.4914 8.22857H1.50857C0.685714 8.22857 0 9.05143 0 10.0114C0 10.9714 0.685714 11.7943 1.50857 11.7943H22.4229C23.3143 11.7943 23.9314 11.04 23.9314 10.0114C24 9.05143 23.3143 8.22857 22.4914 8.22857Z" fill="#0F1228"/>
<path d="M22.4914 16.4571H1.50857C0.685714 16.4571 0 17.28 0 18.24C0 19.2 0.685714 20.0229 1.50857 20.0229H22.4229C23.3143 20.0229 23.9314 19.2686 23.9314 18.24C24 17.28 23.3143 16.4571 22.4914 16.4571Z" fill="#0F1228"/>
</svg>
