<svg width="28" height="34" viewBox="0 0 28 34" fill="none" xmlns="http://www.w3.org/2000/svg">
<mask id="path-1-inside-1" fill="white">
<path d="M27.457 32.8683L26.4682 32.8558H25.7929H24.9006V3.9608C24.9006 3.64645 24.6594 3.39497 24.358 3.39497H20.5596V1.69749C20.5596 1.38314 20.3184 1.13166 20.0169 1.13166H16.2185V0.565828C16.2185 0.251479 15.9774 0 15.6759 0H12.4201C12.1187 0 11.8775 0.251479 11.8775 0.565828V1.13166H8.06706C7.7656 1.13166 7.52444 1.38314 7.52444 1.69749V3.39497H3.72604C3.42458 3.39497 3.18342 3.64645 3.18342 3.9608V32.8558H2.84578H2.71314H1.62788H0.542628C0.241168 32.8558 0 33.1072 0 33.4216C0 33.7359 0.241168 33.9874 0.542628 33.9874L3.71398 34C3.7381 34 3.77428 34 3.79839 33.9874H5.8242C5.84832 33.9874 5.87244 33.9874 5.88449 33.9874H23.6706H27.457C27.7584 33.9874 27.9996 33.7359 27.9996 33.4216C28.0116 33.1198 27.7584 32.8683 27.457 32.8683ZM8.60969 32.8558H6.43918V29.4608H8.60969V32.8558ZM8.60969 28.3291H6.43918V24.9342H8.60969V28.3291ZM8.60969 23.7899H6.43918V20.395H8.60969V23.7899ZM8.60969 19.2633H6.43918V15.8683H8.60969V19.2633ZM8.60969 14.7241H6.43918V11.3291H8.60969V14.7241ZM8.60969 10.1975H6.43918V6.80251H8.60969V10.1975ZM11.8655 32.8558H9.69495V29.4608H11.8655V32.8558ZM11.8655 28.3291H9.69495V24.9342H11.8655V28.3291ZM11.8655 23.7899H9.69495V20.395H11.8655V23.7899ZM11.8655 19.2633H9.69495V15.8683H11.8655V19.2633ZM11.8655 14.7241H9.69495V11.3291H11.8655V14.7241ZM11.8655 10.1975H9.69495V6.80251H11.8655V10.1975ZM15.1333 32.8558H12.9628V29.4608H15.1333V32.8558ZM15.1333 28.3291H12.9628V24.9342H15.1333V28.3291ZM15.1333 23.7899H12.9628V20.395H15.1333V23.7899ZM15.1333 19.2633H12.9628V15.8683H15.1333V19.2633ZM15.1333 14.7241H12.9628V11.3291H15.1333V14.7241ZM15.1333 10.1975H12.9628V6.80251H15.1333V10.1975ZM18.389 32.8558H16.2185V29.4608H18.389V32.8558ZM18.389 28.3291H16.2185V24.9342H18.389V28.3291ZM18.389 23.7899H16.2185V20.395H18.389V23.7899ZM18.389 19.2633H16.2185V15.8683H18.389V19.2633ZM18.389 14.7241H16.2185V11.3291H18.389V14.7241ZM18.389 10.1975H16.2185V6.80251H18.389V10.1975ZM21.6448 32.8558H19.4743V29.4608H21.6448V32.8558ZM21.6448 27.1723V28.3166H19.4743V24.9216H21.6448V27.1723ZM21.6448 23.7899H19.4743V20.395H21.6448V23.7899ZM21.6448 19.2633H19.4743V15.8683H21.6448V19.2633ZM21.6448 14.7241H19.4743V11.3291H21.6448V14.7241ZM21.6448 10.1975H19.4743V6.80251H21.6448V10.1975ZM23.8274 32.8558H22.7421V28.895V6.23669C22.7421 5.92234 22.501 5.67086 22.1995 5.67086H5.89655C5.59509 5.67086 5.35393 5.92234 5.35393 6.23669V32.8683H5.00423H4.26867V4.52663H8.06706C8.36852 4.52663 8.60969 4.27515 8.60969 3.9608V2.26331H12.4081C12.7095 2.26331 12.9507 2.01183 12.9507 1.69749V1.13166H15.1212V1.69749C15.1212 2.01183 15.3624 2.26331 15.6638 2.26331H19.4622V3.39497H10.2376C9.93611 3.39497 9.69495 3.64645 9.69495 3.9608C9.69495 4.27515 9.93611 4.52663 10.2376 4.52663H23.8153V32.8558H23.8274Z"/>
</mask>
<path d="M27.457 32.8683L26.4682 32.8558H25.7929H24.9006V3.9608C24.9006 3.64645 24.6594 3.39497 24.358 3.39497H20.5596V1.69749C20.5596 1.38314 20.3184 1.13166 20.0169 1.13166H16.2185V0.565828C16.2185 0.251479 15.9774 0 15.6759 0H12.4201C12.1187 0 11.8775 0.251479 11.8775 0.565828V1.13166H8.06706C7.7656 1.13166 7.52444 1.38314 7.52444 1.69749V3.39497H3.72604C3.42458 3.39497 3.18342 3.64645 3.18342 3.9608V32.8558H2.84578H2.71314H1.62788H0.542628C0.241168 32.8558 0 33.1072 0 33.4216C0 33.7359 0.241168 33.9874 0.542628 33.9874L3.71398 34C3.7381 34 3.77428 34 3.79839 33.9874H5.8242C5.84832 33.9874 5.87244 33.9874 5.88449 33.9874H23.6706H27.457C27.7584 33.9874 27.9996 33.7359 27.9996 33.4216C28.0116 33.1198 27.7584 32.8683 27.457 32.8683ZM8.60969 32.8558H6.43918V29.4608H8.60969V32.8558ZM8.60969 28.3291H6.43918V24.9342H8.60969V28.3291ZM8.60969 23.7899H6.43918V20.395H8.60969V23.7899ZM8.60969 19.2633H6.43918V15.8683H8.60969V19.2633ZM8.60969 14.7241H6.43918V11.3291H8.60969V14.7241ZM8.60969 10.1975H6.43918V6.80251H8.60969V10.1975ZM11.8655 32.8558H9.69495V29.4608H11.8655V32.8558ZM11.8655 28.3291H9.69495V24.9342H11.8655V28.3291ZM11.8655 23.7899H9.69495V20.395H11.8655V23.7899ZM11.8655 19.2633H9.69495V15.8683H11.8655V19.2633ZM11.8655 14.7241H9.69495V11.3291H11.8655V14.7241ZM11.8655 10.1975H9.69495V6.80251H11.8655V10.1975ZM15.1333 32.8558H12.9628V29.4608H15.1333V32.8558ZM15.1333 28.3291H12.9628V24.9342H15.1333V28.3291ZM15.1333 23.7899H12.9628V20.395H15.1333V23.7899ZM15.1333 19.2633H12.9628V15.8683H15.1333V19.2633ZM15.1333 14.7241H12.9628V11.3291H15.1333V14.7241ZM15.1333 10.1975H12.9628V6.80251H15.1333V10.1975ZM18.389 32.8558H16.2185V29.4608H18.389V32.8558ZM18.389 28.3291H16.2185V24.9342H18.389V28.3291ZM18.389 23.7899H16.2185V20.395H18.389V23.7899ZM18.389 19.2633H16.2185V15.8683H18.389V19.2633ZM18.389 14.7241H16.2185V11.3291H18.389V14.7241ZM18.389 10.1975H16.2185V6.80251H18.389V10.1975ZM21.6448 32.8558H19.4743V29.4608H21.6448V32.8558ZM21.6448 27.1723V28.3166H19.4743V24.9216H21.6448V27.1723ZM21.6448 23.7899H19.4743V20.395H21.6448V23.7899ZM21.6448 19.2633H19.4743V15.8683H21.6448V19.2633ZM21.6448 14.7241H19.4743V11.3291H21.6448V14.7241ZM21.6448 10.1975H19.4743V6.80251H21.6448V10.1975ZM23.8274 32.8558H22.7421V28.895V6.23669C22.7421 5.92234 22.501 5.67086 22.1995 5.67086H5.89655C5.59509 5.67086 5.35393 5.92234 5.35393 6.23669V32.8683H5.00423H4.26867V4.52663H8.06706C8.36852 4.52663 8.60969 4.27515 8.60969 3.9608V2.26331H12.4081C12.7095 2.26331 12.9507 2.01183 12.9507 1.69749V1.13166H15.1212V1.69749C15.1212 2.01183 15.3624 2.26331 15.6638 2.26331H19.4622V3.39497H10.2376C9.93611 3.39497 9.69495 3.64645 9.69495 3.9608C9.69495 4.27515 9.93611 4.52663 10.2376 4.52663H23.8153V32.8558H23.8274Z" fill="#0F1228" stroke="#03CDAF" stroke-width="2" mask="url(#path-1-inside-1)"/>
</svg>
