<svg width="20" height="20" viewBox="0 0 20 20" fill="none" xmlns="http://www.w3.org/2000/svg">
<path fill-rule="evenodd" clip-rule="evenodd" d="M19.7273 18.4545C20.0909 18.8182 20.0909 19.3636 19.7273 19.7273C19.5455 19.9091 19.3636 20 19.0909 20C18.8182 20 18.6364 19.9091 18.4545 19.7273L10 11.2727L1.54545 19.7273C1.36364 19.9091 1.18182 20 0.909091 20C0.636364 20 0.454545 19.9091 0.272727 19.7273C-0.0909091 19.3636 -0.0909091 18.8182 0.272727 18.4545L8.72727 10L0.272727 1.54545C-0.0909091 1.18182 -0.0909091 0.636364 0.272727 0.272727C0.636364 -0.0909091 1.18182 -0.0909091 1.54545 0.272727L10 8.72727L18.4545 0.272727C18.8182 -0.0909091 19.3636 -0.0909091 19.7273 0.272727C20.0909 0.636364 20.0909 1.18182 19.7273 1.54545L11.2727 10L19.7273 18.4545Z" fill="white"/>
</svg>
