<svg width="35" height="35" viewBox="0 0 35 35" fill="none" xmlns="http://www.w3.org/2000/svg">
<path d="M29.873 5.12695C26.5713 1.81836 22.1758 0 17.5 0C12.8242 0 8.42871 1.81836 5.12695 5.12695C1.81836 8.42871 0 12.8242 0 17.5C0 22.1758 1.81836 26.5713 5.12695 29.873C8.43555 33.1816 12.8242 35 17.5 35C22.1758 35 26.5713 33.1816 29.873 29.873C33.1816 26.5645 35 22.1758 35 17.5C35 12.8242 33.1816 8.42871 29.873 5.12695ZM17.5 32.9492C8.98242 32.9492 2.05078 26.0176 2.05078 17.5C2.05078 8.98242 8.98242 2.05078 17.5 2.05078C26.0176 2.05078 32.9492 8.98242 32.9492 17.5C32.9492 26.0176 26.0176 32.9492 17.5 32.9492Z" fill="black"/>
<path d="M18.6006 16.4747H16.4062C15.1553 16.4747 14.1367 15.4561 14.1367 14.2051C14.1367 12.9542 15.1553 11.9356 16.4062 11.9356H20.8017C21.3691 11.9356 21.8271 11.4776 21.8271 10.9102C21.8271 10.3428 21.3691 9.88483 20.8017 9.88483H18.5254V7.6153C18.5254 7.04791 18.0674 6.5899 17.5 6.5899C16.9326 6.5899 16.4746 7.04791 16.4746 7.6153V9.88483H16.3994C14.0205 9.88483 12.0791 11.8262 12.0791 14.2051C12.0791 16.584 14.0205 18.5255 16.3994 18.5255H18.5937C19.8447 18.5255 20.8633 19.544 20.8633 20.795C20.8633 22.046 19.8447 23.0645 18.5937 23.0645H14.1982C13.6308 23.0645 13.1728 23.5225 13.1728 24.0899C13.1728 24.6573 13.6308 25.1153 14.1982 25.1153H16.4746V27.3848C16.4746 27.9522 16.9326 28.4102 17.5 28.4102C18.0674 28.4102 18.5254 27.9522 18.5254 27.3848V25.1153H18.6006C20.9795 25.1153 22.9209 23.1739 22.9209 20.795C22.9209 18.4161 20.9795 16.4747 18.6006 16.4747Z" fill="black"/>
</svg>
