<svg width="49" height="31" viewBox="0 0 49 31" fill="none" xmlns="http://www.w3.org/2000/svg">
<path d="M9.80516 28.7896L9.12939 21.3818C11.654 21.2033 14.1531 20.3108 14.5738 16.7281C17.7359 16.5241 20.8598 16.7281 23.8944 17.3273V18.1051C23.8944 18.4111 24.1494 18.6661 24.4554 18.6661C24.7614 18.6661 25.0165 18.4111 25.0165 18.1051V17.5823C27.9236 18.2581 30.7414 19.3036 33.419 20.7061C32.4882 20.7443 31.5574 20.7953 30.6139 20.8718C25.0165 21.3563 19.5593 22.7078 14.3953 24.8626C14.1148 24.9773 13.9746 25.3088 14.0893 25.6021C14.1786 25.8188 14.3826 25.9463 14.6121 25.9463C14.6886 25.9463 14.7523 25.9336 14.8288 25.9081C19.8908 23.7916 25.2332 22.4783 30.7159 21.9938C36.1604 21.5221 41.6303 21.8791 46.96 23.0648C47.266 23.1286 47.5593 22.9373 47.6358 22.6441C47.6995 22.3381 47.5083 22.0448 47.215 21.9683C44.0911 21.2671 40.929 20.8591 37.7414 20.7188V15.8483C40.1257 15.759 42.6248 15.0068 42.6248 11.0925C42.6248 9.19278 42.0383 6.46427 41.1585 4.28401C39.7177 0.739502 38.2004 0 37.1804 0C35.3316 0 33.9928 2.33326 33.215 4.28401C32.3352 6.46427 31.7487 9.20553 31.7487 11.0925C31.7487 15.0068 34.2478 15.759 36.6321 15.8483V20.6806C36.3134 20.6678 35.9946 20.6678 35.6758 20.6678C32.3352 18.6916 28.7651 17.2636 25.042 16.4221V14.0123C26.011 13.9358 27.5155 13.5278 27.5155 11.3475C27.5155 9.63903 26.4573 5.44427 24.4809 5.44427C22.5174 5.44427 21.4463 9.62628 21.4463 11.3475C21.4463 12.3675 21.7778 13.107 22.4154 13.5533C22.8744 13.8593 23.4099 13.974 23.9199 14.025V16.1926C22.0584 15.8355 20.1585 15.6188 18.2332 15.555V13.3875C19.1512 13.311 20.541 12.903 20.541 10.863C20.541 9.25653 19.5338 5.31677 17.6722 5.31677C16.8434 5.31677 16.1039 6.08177 15.5174 7.53527C15.0838 8.61903 14.8033 9.91953 14.8033 10.863C14.8033 12.903 16.1931 13.311 17.1112 13.3875V15.5295C16.2951 15.5295 15.4791 15.555 14.6631 15.606C14.6631 13.2473 13.9236 9.84303 12.827 7.12727C11.0675 2.76676 9.21864 1.84876 7.98185 1.84876C6.74505 1.84876 4.89624 2.76676 3.13667 7.12727C2.04013 9.84303 1.30061 13.2473 1.30061 15.606C1.30061 16.9066 1.53012 17.9266 1.91263 18.7171C1.61937 18.8446 1.33886 18.9721 1.05835 19.1123C0.777839 19.2398 0.663085 19.5841 0.790589 19.8646C0.892593 20.0686 1.08385 20.1833 1.30061 20.1833C1.37711 20.1833 1.46636 20.1706 1.54287 20.1323C1.86163 19.9793 2.19314 19.8263 2.5374 19.6733C3.53194 20.8081 5.01099 21.2416 6.52829 21.3691L6.12028 28.9298L6.08203 30.0518C7.34432 29.9626 8.61937 29.9116 9.88166 29.9116L9.80516 28.7896ZM32.858 11.1053C32.858 9.34578 33.419 6.77027 34.2478 4.70476C35.1531 2.46076 36.2496 1.122 37.1804 1.122C38.1112 1.122 39.2077 2.46076 40.113 4.70476C40.9418 6.77027 41.5028 9.33303 41.5028 11.1053C41.5028 13.9103 40.0747 14.637 37.7414 14.7263V12.0743L39.705 10.404C39.9472 10.2 39.9727 9.85578 39.7687 9.61353C39.5647 9.37128 39.2205 9.34578 38.9782 9.54978L37.7287 10.608V8.59353L39.2077 5.71202C39.348 5.43152 39.246 5.10002 38.9655 4.95977C38.6849 4.81952 38.3534 4.92152 38.2132 5.20202L37.0529 7.45877L35.6631 5.81402C35.4591 5.57177 35.1148 5.54627 34.8726 5.75027C34.6303 5.95427 34.6048 6.29852 34.8088 6.54077L36.6194 8.67003V10.404L35.5866 9.94503C35.3061 9.81753 34.9746 9.94503 34.8471 10.2255C34.7196 10.506 34.8471 10.8375 35.1276 10.965L36.6194 11.628V14.7263C34.286 14.637 32.858 13.9103 32.858 11.1053ZM22.5556 11.3475C22.5556 10.4805 22.8361 9.23103 23.2441 8.21103C23.7032 7.08902 24.2004 6.56627 24.4682 6.56627C24.7359 6.56627 25.2332 7.07627 25.6922 8.21103C26.1002 9.21828 26.3808 10.4805 26.3808 11.3475C26.3808 12.5333 25.9217 12.9158 24.4682 12.9158C23.0146 12.9158 22.5556 12.5333 22.5556 11.3475ZM15.9126 10.863C15.9126 10.0598 16.1676 8.89953 16.5502 7.95603C17.0347 6.75752 17.4809 6.45152 17.6594 6.45152C17.8379 6.45152 18.2842 6.77027 18.7687 7.95603C19.1512 8.89953 19.4063 10.0725 19.4063 10.863C19.4063 11.934 18.9855 12.291 17.6594 12.291C16.3461 12.291 15.9126 11.934 15.9126 10.863ZM8.68312 28.8023C8.21135 28.8151 7.72684 28.8278 7.25507 28.8533L7.67584 21.4073C7.77784 21.4073 7.87984 21.4073 7.98185 21.4073C7.9946 21.4073 8.00735 21.4073 8.0201 21.4073L8.68312 28.8023ZM11.9727 19.4311C11.2077 19.9538 10.0984 20.2343 8.53012 20.2853V16.7663L12.3808 13.8593C12.623 13.668 12.674 13.3238 12.4955 13.0688C12.3043 12.8265 11.96 12.7755 11.705 12.954L8.54287 15.3638V11.6663L11.3225 9.35853C11.5647 9.15453 11.5902 8.81028 11.399 8.56803C11.195 8.32578 10.8507 8.30028 10.6084 8.49153L8.18585 10.506L6.77055 7.84127C6.6303 7.57352 6.28604 7.45877 6.01828 7.61177C5.75052 7.75202 5.63576 8.09628 5.78877 8.36403L7.43358 11.4495V13.7318L5.20225 12.3293C4.93449 12.1635 4.59023 12.24 4.42447 12.495C4.25871 12.75 4.33522 13.107 4.59023 13.2728L7.40808 15.0705V20.2853C5.83977 20.2343 4.73048 19.9666 3.96545 19.4311C2.93267 18.7171 2.42265 17.4676 2.42265 15.606C2.42265 11.067 5.22775 2.95801 7.9691 2.95801C9.19314 2.95801 10.6084 4.66651 11.7687 7.53527C12.8143 10.1363 13.5155 13.3748 13.5155 15.5933C13.5283 17.4676 13.0183 18.7171 11.9727 19.4311Z" fill="#03CDAF"/>
<path d="M2.71585 28.8533H0.650273C0.29326 28.8533 0 29.1466 0 29.5036C0 29.8606 0.29326 30.1538 0.650273 30.1538H3.36612H4.1694H31.1494H33.2787H48.3497C48.7067 30.1538 49 29.8606 49 29.5036C49 29.1466 48.7067 28.8533 48.3497 28.8533H44.5373H2.71585Z" fill="#03CDAF"/>
</svg>
