<svg width="49" height="31" viewBox="0 0 49 31" fill="none" xmlns="http://www.w3.org/2000/svg">
<path d="M9.80513 28.7896L9.12936 21.3818C11.6539 21.2033 14.153 20.3108 14.5738 16.7281C17.7359 16.5241 20.8598 16.7281 23.8944 17.3273V18.1051C23.8944 18.4111 24.1494 18.6661 24.4554 18.6661C24.7614 18.6661 25.0164 18.4111 25.0164 18.1051V17.5823C27.9235 18.2581 30.7414 19.3036 33.419 20.7061C32.4882 20.7443 31.5574 20.7953 30.6139 20.8718C25.0164 21.3563 19.5592 22.7078 14.3953 24.8626C14.1148 24.9773 13.9745 25.3088 14.0893 25.6021C14.1785 25.8188 14.3825 25.9463 14.6121 25.9463C14.6886 25.9463 14.7523 25.9336 14.8288 25.9081C19.8907 23.7916 25.2332 22.4783 30.7159 21.9938C36.1603 21.5221 41.6303 21.8791 46.96 23.0648C47.266 23.1286 47.5592 22.9373 47.6357 22.6441C47.6995 22.3381 47.5082 22.0448 47.215 21.9683C44.0911 21.2671 40.929 20.8591 37.7414 20.7188V15.8483C40.1257 15.759 42.6248 15.0068 42.6248 11.0925C42.6248 9.19278 42.0383 6.46427 41.1585 4.28401C39.7177 0.739502 38.2004 0 37.1804 0C35.3315 0 33.9927 2.33326 33.215 4.28401C32.3352 6.46427 31.7487 9.20553 31.7487 11.0925C31.7487 15.0068 34.2478 15.759 36.6321 15.8483V20.6806C36.3133 20.6678 35.9946 20.6678 35.6758 20.6678C32.3352 18.6916 28.7651 17.2636 25.0419 16.4221V14.0123C26.011 13.9358 27.5155 13.5278 27.5155 11.3475C27.5155 9.63903 26.4572 5.44427 24.4809 5.44427C22.5173 5.44427 21.4463 9.62628 21.4463 11.3475C21.4463 12.3675 21.7778 13.107 22.4153 13.5533C22.8743 13.8593 23.4099 13.974 23.9199 14.025V16.1926C22.0583 15.8355 20.1585 15.6188 18.2332 15.555V13.3875C19.1512 13.311 20.541 12.903 20.541 10.863C20.541 9.25653 19.5337 5.31677 17.6722 5.31677C16.8434 5.31677 16.1039 6.08177 15.5173 7.53527C15.0838 8.61903 14.8033 9.91953 14.8033 10.863C14.8033 12.903 16.1931 13.311 17.1111 13.3875V15.5295C16.2951 15.5295 15.4791 15.555 14.6631 15.606C14.6631 13.2473 13.9235 9.84303 12.827 7.12727C11.0674 2.76676 9.21861 1.84876 7.98182 1.84876C6.74502 1.84876 4.89621 2.76676 3.13664 7.12727C2.0401 9.84303 1.30058 13.2473 1.30058 15.606C1.30058 16.9066 1.53009 17.9266 1.9126 18.7171C1.61934 18.8446 1.33883 18.9721 1.05832 19.1123C0.777808 19.2398 0.663054 19.5841 0.790559 19.8646C0.892563 20.0686 1.08382 20.1833 1.30058 20.1833C1.37708 20.1833 1.46633 20.1706 1.54284 20.1323C1.8616 19.9793 2.19311 19.8263 2.53737 19.6733C3.53191 20.8081 5.01096 21.2416 6.52826 21.3691L6.12025 28.9298L6.082 30.0518C7.34429 29.9626 8.61934 29.9116 9.88163 29.9116L9.80513 28.7896ZM32.858 11.1053C32.858 9.34578 33.419 6.77027 34.2478 4.70476C35.153 2.46076 36.2496 1.122 37.1804 1.122C38.1111 1.122 39.2077 2.46076 40.113 4.70476C40.9417 6.77027 41.5028 9.33303 41.5028 11.1053C41.5028 13.9103 40.0747 14.637 37.7414 14.7263V12.0743L39.7049 10.404C39.9472 10.2 39.9727 9.85578 39.7687 9.61353C39.5647 9.37128 39.2204 9.34578 38.9782 9.54978L37.7286 10.608V8.59353L39.2077 5.71202C39.3479 5.43152 39.2459 5.10002 38.9654 4.95977C38.6849 4.81952 38.3534 4.92152 38.2132 5.20202L37.0529 7.45877L35.6631 5.81402C35.459 5.57177 35.1148 5.54627 34.8725 5.75027C34.6303 5.95427 34.6048 6.29852 34.8088 6.54077L36.6193 8.67003V10.404L35.5866 9.94503C35.306 9.81753 34.9745 9.94503 34.847 10.2255C34.7195 10.506 34.847 10.8375 35.1275 10.965L36.6193 11.628V14.7263C34.286 14.637 32.858 13.9103 32.858 11.1053ZM22.5556 11.3475C22.5556 10.4805 22.8361 9.23103 23.2441 8.21103C23.7031 7.08902 24.2004 6.56627 24.4682 6.56627C24.7359 6.56627 25.2332 7.07627 25.6922 8.21103C26.1002 9.21828 26.3807 10.4805 26.3807 11.3475C26.3807 12.5333 25.9217 12.9158 24.4682 12.9158C23.0146 12.9158 22.5556 12.5333 22.5556 11.3475ZM15.9126 10.863C15.9126 10.0598 16.1676 8.89953 16.5501 7.95603C17.0346 6.75752 17.4809 6.45152 17.6594 6.45152C17.8379 6.45152 18.2842 6.77027 18.7687 7.95603C19.1512 8.89953 19.4062 10.0725 19.4062 10.863C19.4062 11.934 18.9855 12.291 17.6594 12.291C16.3461 12.291 15.9126 11.934 15.9126 10.863ZM8.68309 28.8023C8.21132 28.8151 7.72681 28.8278 7.25504 28.8533L7.67581 21.4073C7.77781 21.4073 7.87981 21.4073 7.98182 21.4073C7.99457 21.4073 8.00732 21.4073 8.02007 21.4073L8.68309 28.8023ZM11.9727 19.4311C11.2077 19.9538 10.0984 20.2343 8.53009 20.2853V16.7663L12.3807 13.8593C12.623 13.668 12.674 13.3238 12.4955 13.0688C12.3042 12.8265 11.96 12.7755 11.7049 12.954L8.54284 15.3638V11.6663L11.3224 9.35853C11.5647 9.15453 11.5902 8.81028 11.3989 8.56803C11.1949 8.32578 10.8507 8.30028 10.6084 8.49153L8.18582 10.506L6.77052 7.84127C6.63027 7.57352 6.28601 7.45877 6.01825 7.61177C5.75049 7.75202 5.63573 8.09628 5.78874 8.36403L7.43355 11.4495V13.7318L5.20222 12.3293C4.93446 12.1635 4.59019 12.24 4.42444 12.495C4.25868 12.75 4.33519 13.107 4.59019 13.2728L7.40805 15.0705V20.2853C5.83974 20.2343 4.73045 19.9666 3.96542 19.4311C2.93264 18.7171 2.42262 17.4676 2.42262 15.606C2.42262 11.067 5.22772 2.95801 7.96907 2.95801C9.19311 2.95801 10.6084 4.66651 11.7687 7.53527C12.8142 10.1363 13.5155 13.3748 13.5155 15.5933C13.5283 17.4676 13.0182 18.7171 11.9727 19.4311Z" fill="#0F1228"/>
<path d="M2.71585 28.8533H0.650273C0.29326 28.8533 0 29.1466 0 29.5036C0 29.8606 0.29326 30.1538 0.650273 30.1538H3.36612H4.1694H31.1494H33.2787H48.3497C48.7067 30.1538 49 29.8606 49 29.5036C49 29.1466 48.7067 28.8533 48.3497 28.8533H44.5373H2.71585Z" fill="#0F1228"/>
</svg>
