<svg width="37" height="36" viewBox="0 0 37 36" fill="none" xmlns="http://www.w3.org/2000/svg">
<path d="M35.6805 15.7888H34.4281C34.4402 15.6696 34.4402 15.5623 34.4402 15.443C34.4402 14.0836 33.6936 12.8195 32.4894 12.1636C31.2852 11.4958 29.8161 11.5316 28.648 12.259C27.8652 11.2692 26.6008 10.7684 25.3485 10.9711C24.0961 11.1738 23.0484 12.0324 22.6149 13.213C21.2662 13.4038 20.2186 14.4532 20.0259 15.7888H6.24981V13.2369C6.24981 12.891 5.97284 12.6048 5.62363 12.6048H4.64822V4.53154C4.64822 3.66101 4.99744 2.82625 5.62363 2.20615C6.24981 1.58604 7.09275 1.24021 7.97182 1.24021C8.85089 1.24021 9.69383 1.58604 10.32 2.20615C10.9462 2.82625 11.2954 3.66101 11.2954 4.53154V5.24705C9.20011 5.5571 7.64669 7.34587 7.63464 9.44469C7.63464 9.79052 7.91161 10.0767 8.27287 10.0767H15.5944C15.9436 10.0767 16.2326 9.80244 16.2326 9.44469C16.2326 7.34587 14.6792 5.5571 12.5719 5.24705V4.53154C12.5719 2.02727 10.5247 0 7.9959 0C5.46708 0 3.41993 2.02727 3.41993 4.53154V12.6048H2.4084C2.05919 12.6048 1.77018 12.891 1.77018 13.2369V15.7888H0.638227C0.289009 15.7888 0 16.0751 0 16.4209V19.104C0 19.4499 0.289009 19.7361 0.638227 19.7361H1.84243L2.866 29.6339C3.08276 31.7446 4.76864 33.4142 6.90008 33.6169L5.85242 34.9406C5.52729 35.358 5.82834 35.9423 6.35819 35.9423H8.48963C8.6823 35.9423 8.87497 35.8469 8.99539 35.6919L10.597 33.6288H25.6977L27.3113 35.7157C27.4317 35.8707 27.6124 35.9661 27.8171 35.9661H29.9485C30.4784 35.9661 30.7674 35.3699 30.4543 34.9644L29.4066 33.6169C31.5381 33.4022 33.2239 31.7446 33.4407 29.6339L34.4643 19.7361H35.6685C36.0177 19.7361 36.3067 19.4499 36.3067 19.104V16.4209C36.3067 16.0631 36.0177 15.7888 35.6805 15.7888ZM14.8599 8.82458H8.94722C9.24827 7.44127 10.4766 6.45149 11.9096 6.45149C13.3426 6.45149 14.5708 7.44127 14.8599 8.82458ZM23.0123 14.4294H23.0605C23.3736 14.4413 23.6385 14.2267 23.6987 13.9285C23.8914 12.9984 24.6621 12.2948 25.6134 12.1875C26.5647 12.0801 27.4799 12.581 27.8893 13.4396C28.07 13.8212 28.5878 13.9166 28.9009 13.6304C29.6354 12.9387 30.7072 12.7479 31.6344 13.1534C32.5616 13.5469 33.1637 14.4532 33.1637 15.4549C33.1637 15.5742 33.1517 15.6815 33.1397 15.8008H21.3023C21.495 15.0018 22.1935 14.4294 23.0123 14.4294ZM3.04663 13.8689H4.9854V15.7888H3.04663V13.8689ZM8.17653 34.7021H7.64669L8.47758 33.6288H9.00743L8.17653 34.7021ZM28.1422 34.7021L27.3113 33.6288H27.8412L28.6721 34.7021H28.1422ZM32.1883 29.4908C32.0197 31.1365 30.6229 32.3767 28.9611 32.3767H7.35768C5.69588 32.3767 4.299 31.1365 4.13041 29.4908L3.11888 19.7241H33.1999L32.1883 29.4908ZM35.0423 18.472H1.26441V17.041H35.0423V18.472Z" fill="black"/>
<path d="M11.2713 11.305V12.9149C11.2713 13.7497 12.5357 13.7497 12.5357 12.9149V11.305C12.5357 10.4703 11.2713 10.4703 11.2713 11.305Z" fill="black"/>
<path d="M8.87496 11.0427L8.15244 12.6525C7.81526 13.4158 8.9713 13.9285 9.30847 13.1653L10.031 11.5554C10.3802 10.7922 9.22418 10.2795 8.87496 11.0427Z" fill="black"/>
<path d="M14.1012 10.7207C13.7761 10.8638 13.6436 11.2334 13.7761 11.5435L14.4986 13.1534C14.6431 13.4634 15.0164 13.6065 15.3295 13.4754C15.6426 13.3323 15.7871 12.9626 15.6546 12.6525L14.9321 11.0426C14.7876 10.7326 14.4143 10.5895 14.1012 10.7207Z" fill="black"/>
</svg>
