<svg width="23" height="17" viewBox="0 0 23 17" fill="none" xmlns="http://www.w3.org/2000/svg">
<path d="M22.7734 6.02317L15.0484 0.12782C14.8424 -0.0286942 14.5643 -0.0286942 14.3583 0.12782L13.0811 1.08777L11.8142 0.117385C11.6082 -0.0391284 11.3197 -0.0391284 11.124 0.117385L9.88804 1.0669L8.65204 0.117385C8.44604 -0.0391284 8.16794 -0.0391284 7.96194 0.117385L0.236901 6.01274C0.0824004 6.12751 0 6.3049 0 6.48228V16.4157C0 16.7391 0.257501 17 0.576802 17H22.4232C22.7425 17 23 16.7391 23 16.4157V6.48228C23 6.3049 22.9176 6.12751 22.7734 6.02317ZM21.8464 15.8314H19.7658V6.48228C19.7658 6.29446 19.6834 6.12751 19.5392 6.01274L14.0493 1.81817L14.7085 1.31732L21.8567 6.77444V15.8314H21.8464ZM16.5934 15.8314V6.48228C16.5934 6.29446 16.511 6.12751 16.3668 6.01274L10.8356 1.78687L11.464 1.30689L18.6122 6.764V15.8209H16.5934V15.8314ZM9.23914 15.8314H7.35423V11.5951H9.23914V15.8314ZM10.3927 15.8314V11.0107C10.3927 10.6873 10.1352 10.4264 9.81594 10.4264H6.77743C6.45813 10.4264 6.20063 10.6873 6.20063 11.0107V15.8314H1.1536V6.77444L8.30184 1.31732L15.4501 6.77444V15.8314H10.3927Z" fill="#0F1228"/>
</svg>
