<svg width="32" height="33" viewBox="0 0 32 33" fill="none" xmlns="http://www.w3.org/2000/svg">
<path d="M3.91974 13.0537H2.60706V7.82026C2.60706 6.73495 3.47912 5.86118 4.56231 5.86118H20.2227V7.16723H4.57149C4.21349 7.16723 3.91974 7.46156 3.91974 7.82026V13.0537Z" fill="#03CDAF"/>
<path d="M11.0982 26.7857H4.57147C3.48827 26.7857 2.61621 25.9119 2.61621 24.8266V18.2871H3.91971V24.8266C3.91971 25.1853 4.21346 25.4796 4.57147 25.4796H11.0982V26.7857Z" fill="#03CDAF"/>
<path d="M28.7138 30.7039H26.7585C26.4005 30.7039 26.1068 30.4095 26.1068 30.0508V26.7857H18.9283V25.4704H28.7138C30.155 25.4704 31.3208 26.6385 31.3208 28.0825C31.3208 29.5358 30.155 30.7039 28.7138 30.7039ZM27.4103 29.3978H28.7138C29.439 29.3978 30.0173 28.8092 30.0173 28.0917C30.0173 27.3743 29.4298 26.7857 28.7138 26.7857H27.4103V29.3978Z" fill="#03CDAF"/>
<path d="M31.3208 28.0918H30.0173V8.47329C30.0173 7.74668 29.4298 7.16723 28.7138 7.16723H25.4551V5.86118H28.7138C30.155 5.86118 31.3208 7.02927 31.3208 8.47329V28.0918Z" fill="#03CDAF"/>
<path d="M16.5049 32.0099C16.3305 32.0099 16.1653 31.9455 16.0459 31.8168L0.192772 15.9417C-0.0642572 15.6842 -0.0642572 15.2703 0.192772 15.0128L3.91969 11.2785C4.17672 11.021 4.5898 11.021 4.84683 11.2785L20.6908 27.1536C20.9478 27.4111 20.9478 27.825 20.6908 28.0825L16.9639 31.8168C16.8354 31.9455 16.6701 32.0099 16.5049 32.0099ZM1.57889 15.4818L16.5049 30.4371L19.3139 27.6227L4.37867 12.6674L1.57889 15.4818Z" fill="#03CDAF"/>
<path d="M10.4372 20.6233L11.4745 19.584C11.7316 19.3264 12.1446 19.3264 12.4017 19.584C12.6587 19.8415 12.6587 20.2554 12.4017 20.5129L11.3644 21.5522C11.1073 21.8098 10.6943 21.8098 10.4372 21.5522C10.1894 21.2947 10.1894 20.8808 10.4372 20.6233Z" fill="#03CDAF"/>
<path d="M7.83022 18.0112L8.86752 16.9718C9.12455 16.7143 9.53763 16.7143 9.79466 16.9718C10.0517 17.2294 10.0517 17.6433 9.79466 17.9008L8.75736 18.9401C8.50033 19.1977 8.08725 19.1977 7.83022 18.9401C7.57319 18.6826 7.57319 18.2687 7.83022 18.0112Z" fill="#03CDAF"/>
<path d="M13.0534 23.2446L14.0907 22.2053C14.3477 21.9477 14.7608 21.9477 15.0178 22.2053C15.2748 22.4628 15.2748 22.8767 15.0178 23.1342L13.9805 24.1735C13.7235 24.4311 13.3104 24.4311 13.0534 24.1735C12.7963 23.916 12.7963 23.5021 13.0534 23.2446Z" fill="#03CDAF"/>
<path d="M15.6604 25.8567L16.6977 24.8174C16.9547 24.5599 17.3678 24.5599 17.6249 24.8174C17.8819 25.0749 17.8819 25.4888 17.6249 25.7463L16.5876 26.7857C16.3305 27.0432 15.9175 27.0432 15.6604 26.7857C15.4034 26.5281 15.4034 26.1142 15.6604 25.8567Z" fill="#03CDAF"/>
<path d="M5.22317 15.399L6.26046 14.3597C6.51749 14.1022 6.93057 14.1022 7.1876 14.3597C7.44463 14.6172 7.44463 15.0311 7.1876 15.2887L6.15031 16.328C5.89328 16.5855 5.4802 16.5855 5.22317 16.328C4.96614 16.0613 4.96614 15.6474 5.22317 15.399Z" fill="#03CDAF"/>
<path d="M18.4968 14.3137C18.3224 14.3137 18.1572 14.2494 18.0378 14.1206L15.3299 11.4073C15.0728 11.1498 15.0728 10.7359 15.3299 10.4784L25.253 0.544957C26.0149 -0.181652 27.2174 -0.181652 27.9793 0.544957L28.8789 1.44632C29.6317 2.20052 29.6317 3.4238 28.8789 4.178L18.9558 14.1206C18.8365 14.2402 18.6712 14.3137 18.4968 14.3137ZM16.716 10.9474L18.4968 12.7318L27.961 3.24905C28.2088 3.00071 28.2088 2.61441 27.961 2.36608L27.0614 1.46472C26.8135 1.22558 26.428 1.22558 26.1801 1.46472L16.716 10.9474Z" fill="#03CDAF"/>
<path d="M14.4395 15.6658C14.0815 15.6658 13.7877 15.3715 13.7877 15.0128C13.7877 14.9392 13.7969 14.8748 13.8244 14.8104L15.1738 10.7451L16.4131 11.159L15.4768 13.9826L18.2949 13.0445L18.708 14.2862L14.6506 15.6382C14.5772 15.6566 14.5037 15.6658 14.4395 15.6658Z" fill="#03CDAF"/>
<path d="M24.3688 2.34797L23.4471 3.27148L26.1538 5.98349L27.0755 5.05998L24.3688 2.34797Z" fill="#03CDAF"/>
<path d="M11.9977 15.0128H25.5927C25.9507 15.0128 26.2444 15.3071 26.2444 15.6658C26.2444 16.0245 25.9507 16.3188 25.5927 16.3188H11.9977C11.6397 16.3188 11.3459 16.0245 11.3459 15.6658C11.3459 15.3071 11.6397 15.0128 11.9977 15.0128Z" fill="#03CDAF"/>
</svg>
